<?xml version="1.0" encoding="utf-8"?>
<!-- Uploaded to: SVG Repo, www.svgrepo.com, Generator: SVG Repo Mixer Tools -->
<svg width="800px" height="800px" viewBox="0 -72.21 441.653 441.653" xmlns="http://www.w3.org/2000/svg"><defs><style>.a{fill:#211715;}.b{fill:#ffffff;}.c{fill:#7a7473;}.d{fill:#5394cf;}.e{fill:#957f6e;}</style></defs><path class="a" d="M150.207,180.738c7.334,0,14.666-.133,22-.135,2.574,0,2.578-4,0-4-7.334,0-14.666.132-22,.135-2.574,0-2.578,4,0,4Z"/><path class="a" d="M275.49,180.738c7.334,0,14.667-.133,22-.135,2.574,0,2.579-4,0-4-7.333,0-14.666.132-22,.135-2.573,0-2.578,4,0,4Z"/><path class="b" d="M196.974,174.238a19.235,19.235,0,0,1-.689-5.2,16.2,16.2,0,0,1,30.969-6.519,13.9,13.9,0,0,1,7.142-1.9c8.075,0,13.955,6.077,13.651,13.711a15.025,15.025,0,0,1,1.844-.116,13.393,13.393,0,0,1,13.658,13.574c0,8.188-5.7,13.828-13.658,13.828H197.807c-8.263,0-13.658-5.692-13.658-13.828A13.358,13.358,0,0,1,196.974,174.238Z"/><path class="a" d="M198.9,173.707c-1.509-5.646-.166-11.812,4.457-15.618a14.8,14.8,0,0,1,15.9-1.474,14.134,14.134,0,0,1,6.269,6.914,2.021,2.021,0,0,0,2.736.717,12.572,12.572,0,0,1,12.906.318,11.063,11.063,0,0,1,4.878,9.766,2.009,2.009,0,0,0,2,2c5.148-.561,10.09,1.595,12.392,6.393a12.483,12.483,0,0,1-1.64,13.09c-2.727,3.094-6.4,3.8-10.338,3.8H202.009c-3.088,0-6.316.275-9.237-.92-4.922-2.014-7.221-7.5-6.526-12.579a11.5,11.5,0,0,1,10.728-9.879c2.555-.169,2.574-4.17,0-4a15.567,15.567,0,0,0-13.668,9.587,16.724,16.724,0,0,0,2.046,16.033c3.233,4.209,8.142,5.758,13.286,5.758h49.539c4.712,0,9.2-.839,12.727-4.221a16.4,16.4,0,0,0,4.08-15.84,15.376,15.376,0,0,0-11.91-11.034,17.4,17.4,0,0,0-5.027-.191l2,2a15.133,15.133,0,0,0-6.859-13.22,16.619,16.619,0,0,0-16.944-.318l2.737.718a18.263,18.263,0,0,0-33.379.665,19.95,19.95,0,0,0-.557,12.6C195.709,177.254,199.569,176.2,198.9,173.707Z"/><path class="b" d="M109.247,138.175a4.761,4.761,0,0,1,3.81-1.115,4.5,4.5,0,0,1,3.233,2.149,6.371,6.371,0,0,1,.666,2.558,19.056,19.056,0,0,1-1.943,10.1,12.088,12.088,0,0,1-3.131,4.109,8.021,8.021,0,0,1-3.732,1.683s-.233.035-.64.1c-.306,1.145-.65,2.11-.819,2.623-1.045,2.837-6.71,12.387-13.951,16.427a16.619,16.619,0,0,0,.835,5.9c1.533,3.8,9.821,8.579,10.392,8.829,0,0-4.172,17.27-26.528,17.27S51,191.514,51,191.514c.57-.25,7.556-4.364,9.1-8.163.835-2.061.85-4.737.83-7.155a29.732,29.732,0,0,1-7.089-6.3,32.385,32.385,0,0,1-6.173-12.051l-1.218-.187a8.021,8.021,0,0,1-3.732-1.683,12.088,12.088,0,0,1-3.131-4.109,19.056,19.056,0,0,1-1.943-10.1,6.355,6.355,0,0,1,.666-2.558,4.5,4.5,0,0,1,3.233-2.149,4.761,4.761,0,0,1,3.81,1.115s-2.97-29.225,31.5-29.225S109.247,138.175,109.247,138.175Z"/><path class="a" d="M90.742,177.156c.046,2.508.2,5.31,1.6,7.484a17.322,17.322,0,0,0,3.7,3.931,47.819,47.819,0,0,0,4.472,3.237,20.258,20.258,0,0,0,2.444,1.451,2.062,2.062,0,0,0,2.737-.718,2.016,2.016,0,0,0-.718-2.736,19.061,19.061,0,0,1-2.206-1.3q-.91-.577-1.8-1.193c-.374-.26-.746-.526-1.112-.8-.142-.1-.282-.211-.422-.317.342.259-.237-.186-.294-.232a25.623,25.623,0,0,1-1.966-1.73c-.272-.269-.537-.545-.79-.833-.137-.155-.269-.315-.4-.476.2.252.079.1-.04-.07a8.739,8.739,0,0,1-.548-.934c.229.436.015.033-.064-.2a9.535,9.535,0,0,1-.262-.943,17.463,17.463,0,0,1-.334-3.625,2,2,0,0,0-4,0Z"/><path class="a" d="M52.005,193.241a17.1,17.1,0,0,0,2.353-1.439,35.987,35.987,0,0,0,4.141-3.2,13.491,13.491,0,0,0,3.2-3.969,17.458,17.458,0,0,0,1.229-7.473,2,2,0,0,0-4,0,26.416,26.416,0,0,1-.162,3.345,11.427,11.427,0,0,1-.3,1.426c-.065.229-.144.451-.219.675-.175.526.158-.275-.135.278a7.97,7.97,0,0,1-.5.809c-.064.09-.128.18-.2.269.125-.159.142-.182.053-.07-.129.157-.259.313-.394.465a19.153,19.153,0,0,1-1.684,1.663c-.3.265-.606.522-.917.774-.061.049-.557.44-.236.192-.14.108-.282.215-.424.321q-.846.629-1.726,1.21a15.937,15.937,0,0,1-2.106,1.274,2.016,2.016,0,0,0-.717,2.736,2.047,2.047,0,0,0,2.736.718Z"/><path class="c" d="M114.814,115.411q-.276-.966-.616-1.92c-2.117-5.92-6.381-13.212-12.313-15.728l-5.136-3.9c-2.143-2.393-6.763-4.872-10.5-5.9a33.679,33.679,0,0,0-11.6-1.258c-9.658.7-17.868,4.314-24.26,11.638l-3.775,4.943c-6.471,7.01-10.08,17.271-6.65,32.669l.329,1.478a4.431,4.431,0,0,1,1.243-.377,4.761,4.761,0,0,1,3.81,1.115l5.047-3.754c2.994-1.622,4.19-3.631,6.042-7.38,1.338-2.71,2.134-5.877,4.424-7.8a11.344,11.344,0,0,1,6.244-2.178,44.1,44.1,0,0,1,11.54.316c4.019.682,8.356-1.039,12.85.071,5.081,1.093,8.2,4.194,10.76,8.176a25.231,25.231,0,0,1,2.417,4.864,25.5,25.5,0,0,1,.917,3.036c.241,1.022.389,2.02.546,3.074a2.411,2.411,0,0,0,1,1.562,2.48,2.48,0,0,0,2.113.017,4.761,4.761,0,0,1,3.81-1.115,4.618,4.618,0,0,1,.918.236A36.355,36.355,0,0,0,114.814,115.411Z"/><path class="a" d="M90.96,119.374c4.616,1.04,7.809,4.188,10.132,8.186a23.982,23.982,0,0,1,2.87,8.019c.248,1.444.405,2.79,1.551,3.846a4.208,4.208,0,0,0,4.266.678,2.05,2.05,0,0,0,1.4-2.46,2.019,2.019,0,0,0-2.46-1.4c-.291.1-.488.2-.583.1-.257-.268-.227-1.306-.282-1.641a25.75,25.75,0,0,0-1.054-4.192,28.065,28.065,0,0,0-3.654-7.142,18.663,18.663,0,0,0-11.12-7.856c-2.507-.565-3.577,3.291-1.063,3.857Z"/><path class="a" d="M79.174,115.447a43.031,43.031,0,0,0-10.2-.539c-3.348.193-6.9.645-9.536,2.914-2.491,2.145-3.338,5.368-4.736,8.209-1.369,2.78-3.22,5.45-6.032,6.9-2.288,1.182-.267,4.635,2.019,3.454a16.864,16.864,0,0,0,6.4-6.4c1.565-2.571,2.284-5.627,4.017-8.086,1.694-2.406,4.749-2.783,7.473-2.966a38.912,38.912,0,0,1,9.522.372c2.516.459,3.6-3.4,1.063-3.857Z"/><path class="a" d="M100.876,99.49c5.721,2.519,9.294,8.732,11.337,14.376a33.884,33.884,0,0,1,.26,21.7c-.792,2.456,3.069,3.507,3.857,1.063a37.514,37.514,0,0,0-.375-24.136c-2.4-6.44-6.494-13.561-13.06-16.453a2.065,2.065,0,0,0-2.737.717,2.015,2.015,0,0,0,.718,2.737Z"/><path class="a" d="M45.2,101.876a31.82,31.82,0,0,0-7.552,14.072c-1.618,6.765-1.088,13.8.387,20.543.55,2.513,4.407,1.45,3.857-1.064-1.318-6.022-1.833-12.366-.387-18.416A27.686,27.686,0,0,1,48.027,104.7c1.735-1.9-1.086-4.732-2.828-2.828Z"/><path class="a" d="M98.163,92.451c-4.93-5.321-13.2-7.575-20.21-7.807A38.317,38.317,0,0,0,57.834,89.6a35.785,35.785,0,0,0-8.86,7.333c-1.7,1.924,1.121,4.763,2.828,2.828A32.608,32.608,0,0,1,71.674,89.032a33.164,33.164,0,0,1,13.579.739c3.626.958,7.5,2.719,10.081,5.508,1.754,1.893,4.577-.941,2.829-2.828Z"/><path class="a" d="M87.758,113.969a11.635,11.635,0,0,0-6.515-6.75,18.249,18.249,0,0,0-10.6-1.339,2.016,2.016,0,0,0-1.4,2.461,2.048,2.048,0,0,0,2.46,1.4,13.5,13.5,0,0,1,7.514.936,10.621,10.621,0,0,1,3,1.913c.216.2.424.414.621.635a2.418,2.418,0,0,1,.353.443,8.995,8.995,0,0,1,.48.808c.017.033.169.367.112.228s.108.341.106.333a2,2,0,1,0,3.857-1.064Z"/><path class="a" d="M106.1,154.111a18.068,18.068,0,0,1-1.051,4.878c-.094.286-.2.57-.287.859-.037.122-.2.483.017-.019-.147.341-.307.675-.474,1.006a40.9,40.9,0,0,1-3.519,5.658c-3.084,4.228-7.266,8.705-12.547,9.944-2.506.587-1.445,4.445,1.063,3.857,6.244-1.465,11.092-6.574,14.765-11.547,3.175-4.3,5.811-9.171,6.033-14.636.1-2.574-3.9-2.569-4,0Z"/><path class="a" d="M44.705,153.8A36.867,36.867,0,0,0,52.7,171.637c4.408,5.15,10.2,8.876,17.024,9.609a2.012,2.012,0,0,0,2-2,2.046,2.046,0,0,0-2-2c-5.877-.632-10.789-4.347-14.473-8.766-3.725-4.469-5.7-10.074-6.684-15.739a2.018,2.018,0,0,0-2.461-1.4,2.046,2.046,0,0,0-1.4,2.46Z"/><path class="a" d="M110.662,139.589a2.68,2.68,0,0,1,3.824.5,5.5,5.5,0,0,1,.532,2.784,16.244,16.244,0,0,1-.231,3.34c-.725,3.972-2.758,8.72-7.169,9.511a2.018,2.018,0,0,0-1.4,2.46,2.043,2.043,0,0,0,2.46,1.4c6.623-1.187,9.78-8.671,10.278-14.673.254-3.062.024-6.584-2.627-8.572a6.8,6.8,0,0,0-8.5.422,2.015,2.015,0,0,0,0,2.828,2.044,2.044,0,0,0,2.829,0Z"/><path class="a" d="M46.759,136.761a6.8,6.8,0,0,0-8.5-.422c-2.652,1.983-2.88,5.514-2.626,8.572.5,6,3.655,13.486,10.278,14.673a2.055,2.055,0,0,0,2.46-1.4,2.017,2.017,0,0,0-1.4-2.46c-4.411-.791-6.444-5.539-7.169-9.511a16.108,16.108,0,0,1-.234-3.155,6.3,6.3,0,0,1,.458-2.842,2.664,2.664,0,0,1,3.9-.63,2.056,2.056,0,0,0,2.829,0,2.016,2.016,0,0,0,0-2.828Z"/><path class="b" d="M27.3,285.838c-4.6-1.656-13.033-4.6-16.282-6.467-4.855-2.791-8.65-7.808-8.982-13.4a54.445,54.445,0,0,1,1.563-13.7c2.223-8.168,7.327-24.446,9.4-31.067,3.412-10.918,6.207-16.548,10.38-19.832,5.581-4.392,24.728-11.026,34.206-14.851l16.73,5.66c1.91,0,3.4-.008,5.387-.011l17.319-5.649c9.478,3.825,29.108,10.459,34.689,14.851,4.173,3.284,6.968,8.914,10.38,19.832,2.069,6.621,7.725,23.175,10.085,31.481.988,3.474,2.192,10.11,1.564,13.7-.964,5.516-5,9.825-9.856,12.616-3.249,1.868-11.5,5.179-16.1,6.835Z"/><path class="b" d="M78.948,192.171l-4.64.01L55.72,184.655c3.016,12.929,8.374,26.885,12.621,39.463,3.226,9.553,5.74,15.9,9.54,25.319l8.55-25.319c4.248-12.578,9.606-26.534,12.621-39.463L79.695,192.17Z"/><path class="d" d="M85.482,226.418c-1.62-10.83-3.333-22.143-3.323-22.742a11.787,11.787,0,0,1,.757-3.427c.489-1.5.775-2.8,1.1-4.091-.59-.612-1.176-1.228-1.736-1.843-.85-.933-1.541-1.631-2.061-2.148-2.165,0-3.714.01-5.675.011-.519.516-1.205,1.211-2.05,2.137-.534.587-1.092,1.175-1.656,1.76.345,1.787.592,2.938.977,4.584.063.294.136.578.21.872a8.121,8.121,0,0,1,.315,1.935c0,.368-1.766,13.262-3.048,23.776Z"/><path class="a" d="M96.482,188.449c8.41,3.386,17.025,6.264,25.331,9.911,1.841.808,3.672,1.651,5.447,2.6.715.381,1.422.78,2.107,1.214a9.227,9.227,0,0,1,1.443,1.042c2.85,2.447,4.636,5.866,6.084,9.3,1.836,4.358,3.141,8.916,4.606,13.406s2.964,9,4.431,13.5c1.413,4.338,2.827,8.679,4.1,13.061a52.569,52.569,0,0,1,1.462,6.61,23.214,23.214,0,0,1,.311,6.76c-.806,5.5-5.366,9.627-10.077,12.034a125.431,125.431,0,0,1-14.48,6.02c-2.4.868-1.365,4.735,1.064,3.857,4.747-1.715,9.475-3.583,14.04-5.741,4.591-2.17,8.854-5.342,11.384-9.84,2.766-4.916,2.344-10.259,1.369-15.614a106.173,106.173,0,0,0-3.676-13.133c-1.575-4.935-3.2-9.852-4.822-14.772-1.477-4.488-2.824-9.03-4.418-13.477s-3.425-8.93-6.436-12.62a23.751,23.751,0,0,0-8.378-6.033c-9.633-4.694-19.9-7.948-29.828-11.944a2.013,2.013,0,0,0-2.46,1.4,2.049,2.049,0,0,0,1.4,2.46Z"/><path class="a" d="M57.047,184.592c-8.922,3.593-18.04,6.714-26.8,10.709-3.333,1.521-6.818,3.129-9.488,5.7-3.033,2.919-4.924,6.789-6.509,10.626-1.9,4.6-3.3,9.4-4.783,14.15q-2.205,7.072-4.359,14.161c-1.32,4.363-2.81,8.749-3.783,13.2a62.043,62.043,0,0,0-1.124,7.6,26.668,26.668,0,0,0,.136,7.6C1.493,274.2,5.989,279.2,11.268,281.757a156.562,156.562,0,0,0,15.5,6.009c2.426.873,3.472-2.991,1.063-3.857-4.436-1.6-8.936-3.1-13.249-5.009-4.179-1.853-7.9-4.784-9.659-9.14-1.764-4.376-.835-9.779.007-14.275a119.342,119.342,0,0,1,3.326-12.111c2.693-8.99,5.274-18.085,8.423-26.929,1.38-3.874,2.985-8.076,5.631-11.235a14.6,14.6,0,0,1,3.165-2.888,40.436,40.436,0,0,1,4.486-2.477c9.1-4.453,18.771-7.618,28.152-11.4a2.063,2.063,0,0,0,1.4-2.46,2.013,2.013,0,0,0-2.46-1.4Z"/><path class="a" d="M72.786,205.765c3.028,0,6.056-.066,9.084-.068a2,2,0,0,0,0-4c-3.028,0-6.056.067-9.084.068a2,2,0,0,0,0,4Z"/><path class="a" d="M68.811,197.47c.347,1.742.759,3.465,1.155,5.2a4.286,4.286,0,0,1,.092,1.559c-.2,1.7-.438,3.391-.661,5.085-.8,6.049-1.588,12.1-2.329,18.154a2.012,2.012,0,0,0,2,2,2.048,2.048,0,0,0,2-2c.753-6.157,1.56-12.307,2.369-18.457.216-1.64.5-3.288.64-4.937a7.64,7.64,0,0,0-.211-2.275c-.389-1.8-.839-3.582-1.2-5.389-.5-2.522-4.358-1.454-3.857,1.064Z"/><path class="a" d="M79.695,190.17l-5.387.011a2,2,0,0,0,0,4l5.387-.011a2,2,0,1,0,0-4Z"/><path class="a" d="M87.66,226.136c-.862-5.768-1.736-11.534-2.581-17.3q-.209-1.43-.413-2.86-.077-.539-.15-1.078c-.047-.346.056.446-.008-.066-.015-.113-.031-.226-.043-.34-.225-2,.86-4.076,1.345-5.992.632-2.5-3.225-3.561-3.857-1.063-.562,2.217-1.711,4.556-1.509,6.885.144,1.649.446,3.3.685,4.938C82,215.24,82.909,221.219,83.8,227.2a2.014,2.014,0,0,0,2.46,1.4,2.05,2.05,0,0,0,1.4-2.46Z"/><path class="b" d="M64.476,203.259c-3.814-5.111-7.91-10.195-10.851-16.592a64.771,64.771,0,0,1,5.592-6.556c3.3,3.111,8.963,6.667,15.113,10.246a7.36,7.36,0,0,1,1.36.768c.167.312-.159.586-.312.831-.24.385-1.349,1.442-3.432,3.579C69.291,198.259,66.775,200.815,64.476,203.259Z"/><path class="b" d="M89.884,203.259c3.815-5.111,7.911-10.195,10.852-16.592a64.9,64.9,0,0,0-5.592-6.556c-3.3,3.111-8.963,6.667-15.114,10.246a7.377,7.377,0,0,0-1.359.768c-.167.312.158.586.312.831.24.385,1.348,1.442,3.431,3.579C85.069,198.259,87.586,200.815,89.884,203.259Z"/><path class="a" d="M66.2,202.25c-3.97-5.311-8.039-10.547-10.852-16.593l-.312,2.424a62.32,62.32,0,0,1,5.592-6.556H57.8a55.387,55.387,0,0,0,7.562,5.7c1.539,1,3.1,1.972,4.678,2.92q1.243.747,2.495,1.48c.354.207.7.421,1.068.612.129.068.951.589.669.3l-.585-1.415.027.3.273-1.01a6.313,6.313,0,0,1-.381.594c.371-.526.118-.151.01-.046-.263.258-.51.537-.769.8-.983,1-1.971,2-2.952,3.007-2.29,2.347-4.587,4.687-6.836,7.074-1.764,1.873,1.059,4.707,2.829,2.828,2.65-2.813,5.358-5.574,8.065-8.333,1.419-1.446,5.019-4.109,3.3-6.426a4.282,4.282,0,0,0-1.635-1.129c-.89-.469-1.749-1.01-2.613-1.524-1.6-.954-3.2-1.926-4.769-2.932a52.635,52.635,0,0,1-7.612-5.632,2.038,2.038,0,0,0-2.828,0,62.54,62.54,0,0,0-5.593,6.555,2.134,2.134,0,0,0-.312,2.424c2.813,6.046,6.881,11.282,10.851,16.593a2.063,2.063,0,0,0,2.737.717A2.014,2.014,0,0,0,66.2,202.25Z"/><path class="a" d="M91.611,204.269c3.97-5.311,8.039-10.547,10.852-16.593a2.13,2.13,0,0,0-.313-2.424,62.411,62.411,0,0,0-5.592-6.555,2.041,2.041,0,0,0-2.829,0,52.5,52.5,0,0,1-7.611,5.632c-1.572,1.006-3.165,1.978-4.769,2.932-.864.514-1.723,1.058-2.613,1.524a4.293,4.293,0,0,0-1.635,1.129c-1.716,2.317,1.883,4.978,3.3,6.426,2.707,2.759,5.415,5.52,8.066,8.333,1.769,1.878,4.594-.954,2.829-2.828-2.249-2.387-4.546-4.727-6.836-7.074q-1.428-1.463-2.864-2.916c-.289-.294-.563-.6-.857-.892-.117-.114-.35-.478.01.046-.136-.2-.264-.382-.382-.594l.273,1.01.028-.3-.586,1.415c-.285.291.39-.16.525-.229.414-.211.812-.449,1.212-.684q1.156-.678,2.307-1.367c1.639-.983,3.266-1.988,4.866-3.033a55.335,55.335,0,0,0,7.563-5.7H93.729a62.211,62.211,0,0,1,5.593,6.556l-.313-2.424C96.2,191.7,92.127,196.939,88.157,202.25a2.013,2.013,0,0,0,.718,2.736A2.046,2.046,0,0,0,91.611,204.269Z"/><path class="b" d="M77.206,218.84c-21.779.157-43.453.284-51.148.31a2.211,2.211,0,0,0-2.206,2.222c.044,12.5.648,55.774,1.107,71.679a2.216,2.216,0,0,0,2.253,2.151c6.955-.107,28.5-.041,49.994.032,21.5-.073,43.039-.139,49.993-.032a2.216,2.216,0,0,0,2.254-2.151c.459-15.9,1.062-59.176,1.107-71.679a2.212,2.212,0,0,0-2.206-2.222C120.658,219.124,98.985,219,77.206,218.84Z"/><path class="a" d="M77.386,216.84q-23.007.165-46.016.288l-3.353.015a8.454,8.454,0,0,0-3.483.388c-2.62,1.173-2.5,3.794-2.489,6.21q.042,6.5.128,13,.2,17.3.505,34.6.135,7.722.3,15.444c.045,1.994.056,3.993.15,5.985a4.423,4.423,0,0,0,2.321,3.968,7.275,7.275,0,0,0,3.488.442c14-.137,28.008-.016,42.01.03,15.975.052,31.951-.093,47.926-.063,2.352,0,4.7.01,7.057.034a6.6,6.6,0,0,0,3.661-.587,4.567,4.567,0,0,0,2.052-4.013c.163-4.391.214-8.789.3-13.182q.339-17.418.556-34.837.1-7.6.178-15.21.029-2.853.048-5.7c.016-2.465.057-5.193-2.729-6.221a9.757,9.757,0,0,0-3.355-.287l-3.381-.016q-4.533-.023-9.066-.048-11.861-.068-23.722-.148-6.544-.044-13.089-.091c-2.574-.019-2.577,3.981,0,4q22.292.16,44.582.281c2.086.01,4.214-.1,6.3.028.7.044.476.46.472,1.218s-.009,1.542-.015,2.313q-.048,6.39-.13,12.779-.2,16.626-.486,33.25-.13,7.542-.291,15.082-.066,2.959-.143,5.917a9.922,9.922,0,0,1-.033,1.158c-.046.306.056.294-.34.335a23.946,23.946,0,0,1-2.541-.027c-13.726-.1-27.455-.006-41.181.039-15.46.051-30.921-.085-46.381-.065q-3.646,0-7.293.027a14.32,14.32,0,0,1-2.509.027c-.335-.061-.215-.044-.259-.336a11.4,11.4,0,0,1-.038-1.359q-.172-6.489-.286-12.978-.323-16.745-.533-33.492-.1-7.355-.175-14.709-.03-2.872-.051-5.744-.009-1.149-.015-2.3a3.938,3.938,0,0,1,0-.914c.074-.277.12-.2.568-.223,2.1-.128,4.247-.018,6.353-.029q4.477-.023,8.955-.049,11.438-.066,22.874-.143l12.6-.088C79.959,220.821,79.965,216.821,77.386,216.84Z"/><path class="a" d="M34.537,286.757c23.385-.144,46.775.019,70.161-.016,5.179-.008,10.358-.016,15.537.016,2.575.016,2.577-3.984,0-4-23.385-.144-46.775.019-70.16-.016-5.18-.008-10.359-.016-15.538.016-2.573.016-2.579,4.016,0,4Z"/><path class="a" d="M77.386,248.882c-1.59.015-3.181.036-4.772.038a2.03,2.03,0,0,0-2,2q-.011,2.5-.007,5.006c0,.98,0,1.96.012,2.94,0,.353,0,.706.014,1.058a2.079,2.079,0,0,0,2.17,2.133c2.859,0,5.719-.019,8.578-.006a3.451,3.451,0,0,0,1.764-.259,2.364,2.364,0,0,0,1-2.3c.012-.918.015-1.835.017-2.753q.006-2.907-.006-5.814a2.03,2.03,0,0,0-2-2c-1.59,0-3.181-.023-4.772-.038a2,2,0,0,0,0,4c1.591.015,3.182.036,4.772.038l-2-2c.012,3.047.054,6.1-.022,9.144l.273-1.009h0l1.727-.99c-.524-.048-1.065-.015-1.591-.015-1.053,0-2.105.011-3.158.011-1.028,0-2.056-.01-3.083-.011-.55,0-1.117-.036-1.666.015l1.727.99h0l.274,1.009c-.076-3.046-.035-6.1-.023-9.144l-2,2c1.591,0,3.182-.023,4.772-.038a2,2,0,1,0,0-4Z"/><path class="a" d="M71.274,164.23a13.2,13.2,0,0,0,6.353,1.479,10.429,10.429,0,0,0,6.491-1.948,2,2,0,0,0,0-2.829,2.062,2.062,0,0,0-2.828,0c.681-.531-.1.033-.316.149-.172.09-.643.227-.043.04-.177.055-.348.133-.525.19-.223.072-.449.133-.678.186-.152.035-.652.218-.789.149l.215-.029c-.083.01-.165.019-.248.027-.144.014-.288.026-.433.036-.347.022-.695.031-1.043.029q-.468,0-.934-.034c-.143-.01-.286-.021-.428-.035s-.566.027-.1-.008a4.4,4.4,0,0,1-1.371-.305c-.192-.057-.379-.126-.569-.191-.471-.161.388.189-.038-.012-.235-.111-.467-.226-.7-.348a2,2,0,0,0-2.019,3.454Z"/><path class="a" d="M76.427,149.5a28.726,28.726,0,0,1,.68,3.107l-.072-.531a1.922,1.922,0,0,1,.012.429l.071-.532a.988.988,0,0,1-.047.193l.2-.478a.829.829,0,0,1-.068.124l.312-.405a.637.637,0,0,1-.1.1l.405-.312a2.142,2.142,0,0,1-.246.13l.477-.2a1.764,1.764,0,0,1-.415.121l.532-.071a1.687,1.687,0,0,1-.389,0l.531.072c-.146-.021-.29-.057-.437-.076a1.506,1.506,0,0,0-.8-.036,1.486,1.486,0,0,0-.743.237,2,2,0,0,0-.718,2.737,1.916,1.916,0,0,0,1.2.919c.371.05.73.143,1.107.159a3.605,3.605,0,0,0,1.676-.405,2.506,2.506,0,0,0,1.364-1.643,3.949,3.949,0,0,0-.014-1.724c-.17-1-.4-1.994-.658-2.975a2.064,2.064,0,0,0-.92-1.2,2.038,2.038,0,0,0-1.541-.2,2.017,2.017,0,0,0-1.195.919,2.1,2.1,0,0,0-.2,1.541Z"/><path class="a" d="M60.389,140.594c-.519,1.686-.181,5.565,3.014,5.9,4.223-.025,4.447-4.715,3.026-6.92C65.265,137.763,61.843,137.012,60.389,140.594Z"/><path class="a" d="M94.2,140.594c.519,1.686.181,5.565-3.014,5.9-4.223-.025-4.447-4.715-3.026-6.92C89.327,137.763,92.749,137.013,94.2,140.594Z"/><path class="b" d="M54.094,57.14v1.107c11.849,0,34.561,0,46.295,0,0-.768,0-1.206,0-1.206,0-5.967-.235-48.473-.235-55.044H54.03C54.03,2.161,54.094,48.162,54.094,57.14Z"/><path class="d" d="M99.891,13.749c-9.51.015-36.836.084-45.78.1,0,3,.009,6.389.014,9.925,12.011-.027,44.044-.088,46.179-.088-.017-3.513-.033-6.9-.046-9.937Z"/><path class="d" d="M56.664,44.737l-2.576.006c0-3.095-.008-6.473-.015-9.931,3.368,0,43.368-.087,46.226-.087.013,3.5.029,6.88.043,9.93C98.663,44.655,72.1,44.7,56.664,44.737Z"/><path class="a" d="M54.133,15.853q18.939-.042,37.877-.086,4.137-.009,8.273-.014c2.573,0,2.578-4,0-4q-18.934.021-37.868.08l-8.282.02c-2.574.005-2.579,4.005,0,4Z"/><path class="a" d="M54.118,25.773q18.963-.042,37.927-.086,4.127-.009,8.253-.014c2.573,0,2.578-4,0-4q-18.939.021-37.876.08l-8.3.02c-2.574,0-2.579,4,0,4Z"/><path class="a" d="M54.1,36.813q18.955-.042,37.913-.086,4.147-.009,8.3-.014c2.573,0,2.578-4,0-4q-18.9.021-37.8.08l-8.41.02c-2.574,0-2.579,4,0,4Z"/><path class="a" d="M54.083,46.743q18.99-.042,37.979-.086,4.136-.009,8.271-.014c2.573,0,2.578-4,0-4q-18.907.021-37.815.08l-8.435.02c-2.574,0-2.579,4,0,4Z"/><path class="a" d="M47.138,60.25h60.139c2.574,0,2.578-4,0-4H47.138c-2.573,0-2.578,4,0,4Z"/><path class="a" d="M102.385,57.044c0-15.444-.14-30.888-.206-46.332-.012-2.9-.028-5.808-.029-8.712a2.029,2.029,0,0,0-2-2H54.03a2.029,2.029,0,0,0-2,2q0,8,.022,15.993.018,13.976.034,27.951.006,5.6.008,11.2c0,2.574,4,2.579,4,0q0-11.579-.022-23.157Q56.057,21,56.038,8.011q0-3.006-.008-6.011l-2,2h46.12l-2-2c0,15.547.139,31.1.207,46.641.012,2.8.028,5.6.028,8.4,0,2.573,4,2.578,4,0Z"/><path class="e" d="M406.552,204.587a11.941,11.941,0,0,0,9-11.173,33.141,33.141,0,0,0-1.825-10.609c-1.5-4.662-4.4-14.135-4.606-31.069l0,0a100.923,100.923,0,0,0-.2-13.956c-.653-8.955-4.753-18.954-10.654-24.512-2.551-2.4-3.293-3.524-6.069-5l-6.665-3.175c-4.1-1.543-7.915-2.285-15.113-2.285a42.512,42.512,0,0,0-26.966,10.292c-7.733,7.227-12.638,20.428-12.019,38.632v0c.007,13.588-1.03,23.39-2.483,28.958-.2.788-.4,1.688-.592,2.652a34.9,34.9,0,0,0-1.693,10.119c-.054,2.945.455,6.254,2.81,8.024,1.656,1.444,4.507,3.191,7.542,3.1Z"/><path class="b" d="M393.6,199.7c-3.7-2-8.466-4.453-9.006-5.788-.715-1.759-.67-4.1-.657-6.137,7.543-3.235,13.611-13.388,14.67-16.26.159-.485.485-1.4.783-2.484l.595-.091a7.579,7.579,0,0,0,3.529-1.591,11.453,11.453,0,0,0,2.96-3.884,18.02,18.02,0,0,0,1.836-9.546,6.011,6.011,0,0,0-.629-2.417,4.252,4.252,0,0,0-3.056-2.032,4.449,4.449,0,0,0-3.561,1.034c-5.88-1.137-16.349-15.877-18.31-22.386-3.682,4.543-11.735,8.879-19.014,11.439-1.493.525-6.285,1.909-9.01,2.7a39.549,39.549,0,0,0-14.31,8.127,4.432,4.432,0,0,0-3.407-.914,4.248,4.248,0,0,0-3.056,2.032,6,6,0,0,0-.63,2.417,18.012,18.012,0,0,0,1.837,9.546,11.45,11.45,0,0,0,2.959,3.884,7.265,7.265,0,0,0,4.648,1.662,30.691,30.691,0,0,0,5.868,11.5,26.211,26.211,0,0,0,8.867,7.127c.009,2.07.077,4.472-.65,6.276-.528,1.3-6.071,4.38-9.182,6.01,0,0,2.222,16.815,23.185,16.815S393.6,199.7,393.6,199.7Z"/><path class="a" d="M329.428,151.736a146.129,146.129,0,0,1-1.544,24.287c-.6,3.524-1.692,6.919-2.421,10.408-.878,4.209-1.51,9.256.258,13.327,1.782,4.1,6.942,6.844,11.291,6.83,2.573-.008,2.578-4.008,0-4-3.1.01-7-2.085-7.921-5.2-1.121-3.817-.262-8.427.784-12.163a93.873,93.873,0,0,0,3.081-18.759c.349-4.9.47-9.815.472-14.727,0-2.574-4-2.578-4,0Z"/><path class="a" d="M407.122,151.736a115.728,115.728,0,0,0,2.617,24.187c1.366,5.977,4.518,12.228,3.771,18.456a10.011,10.011,0,0,1-7.489,8.28c-2.5.592-1.444,4.45,1.063,3.857a13.849,13.849,0,0,0,9.249-7.777c1.894-4.229,1.286-9.085.191-13.462-.663-2.65-1.607-5.224-2.3-7.867a88.177,88.177,0,0,1-1.922-9.494,122.142,122.142,0,0,1-1.178-16.18c-.035-2.572-4.035-2.579-4,0Z"/><path class="a" d="M386.059,103.171a43.962,43.962,0,0,0-16.967-2.332,44.57,44.57,0,0,0-19.185,5.37,34.285,34.285,0,0,0-11.319,9.349,42.009,42.009,0,0,0-6.77,14.049,72.511,72.511,0,0,0-2.389,22.132c.081,2.568,4.081,2.579,4,0-.35-11.108,1.067-23.1,7.434-32.529,5.634-8.34,16.242-13.276,26.054-14.225A40.881,40.881,0,0,1,385,107.028c2.415.9,3.458-2.965,1.063-3.857Z"/><path class="a" d="M411.12,151.739a76.3,76.3,0,0,0,.03-10.11,63,63,0,0,0-.938-9.048,41.035,41.035,0,0,0-8.941-19.065,30.986,30.986,0,0,0-8.07-6.968c-2.264-1.226-4.285,2.227-2.019,3.454a27.714,27.714,0,0,1,6.536,5.55,30.6,30.6,0,0,1,5.193,7.711,44.875,44.875,0,0,1,4.2,17.7,78.824,78.824,0,0,1,0,10.78c-.216,2.565,3.785,2.55,4,0Z"/><path class="b" d="M320.859,282.154c-8.027-4.123-15.617-9.649-17.413-15.232a21.454,21.454,0,0,1,.893-14.727c4.2-10.209,7.588-21.745,12.4-32.383a39.987,39.987,0,0,1,5.75-9.121,42.531,42.531,0,0,1,10.551-7.4c3.994-1.635,12.975-3.871,13.681-3.418,6.171,3.6,15.259,6.991,24.386,6.955,9.127.036,17.864-3.689,24.035-7.29.706-.452,10.038,2.118,14.032,3.753a42.528,42.528,0,0,1,10.55,7.4,39.951,39.951,0,0,1,5.751,9.121c4.81,10.638,8.2,22.174,12.4,32.383a21.454,21.454,0,0,1,.893,14.727c-1.8,5.583-9.386,11.109-17.414,15.232"/><path class="a" d="M341.994,151.661a41.16,41.16,0,0,1,6.782-4.723,43.021,43.021,0,0,1,9-3.48,78.556,78.556,0,0,0,17.7-7.076,32.4,32.4,0,0,0,8.55-6.685c1.66-1.949-1.156-4.792-2.828-2.828-4.23,4.967-10.817,8.092-16.816,10.334-5.685,2.125-11.707,3.117-17.108,6a45.709,45.709,0,0,0-8.113,5.632c-1.961,1.673.88,4.491,2.828,2.828Z"/><path class="a" d="M402.433,151.942a2.423,2.423,0,0,1,3.443.453,5.094,5.094,0,0,1,.489,2.577,15.24,15.24,0,0,1-.215,3.128c-.678,3.718-2.568,8.174-6.7,8.915a2.017,2.017,0,0,0-1.4,2.46,2.043,2.043,0,0,0,2.46,1.4c6.311-1.131,9.321-8.257,9.8-13.977.244-2.939,0-6.293-2.537-8.2a6.535,6.535,0,0,0-8.167.416,2.015,2.015,0,0,0,0,2.828,2.043,2.043,0,0,0,2.828,0Z"/><path class="a" d="M397.935,165.593a16.99,16.99,0,0,1-.989,4.582c-.089.27-.192.539-.272.812-.037.127-.2.476.027-.044-.139.322-.29.638-.447.951a38.561,38.561,0,0,1-3.328,5.348c-2.9,3.975-6.832,8.186-11.8,9.35-2.5.588-1.445,4.446,1.063,3.857,5.932-1.391,10.534-6.241,14.023-10.966,3.014-4.08,5.508-8.7,5.718-13.89.1-2.574-3.9-2.57-4,0Z"/><path class="a" d="M342.024,149.114a6.537,6.537,0,0,0-8.167-.416c-2.544,1.9-2.781,5.263-2.537,8.2.475,5.72,3.486,12.846,9.8,13.977a2.057,2.057,0,0,0,2.461-1.4,2.018,2.018,0,0,0-1.4-2.46c-4.133-.741-6.022-5.2-6.7-8.915a15.05,15.05,0,0,1-.217-2.953,5.857,5.857,0,0,1,.418-2.632,2.407,2.407,0,0,1,3.516-.573,2.053,2.053,0,0,0,2.828,0,2.015,2.015,0,0,0,0-2.828Z"/><path class="a" d="M340.207,166.943c2.468,11.6,10.924,23.066,23.446,24.411a2.013,2.013,0,0,0,2-2,2.045,2.045,0,0,0-2-2c-5.117-.549-9.472-3.614-12.827-7.357a30.21,30.21,0,0,1-6.762-14.117c-.536-2.517-4.392-1.452-3.857,1.063Z"/><path class="a" d="M381.932,187.783a23.919,23.919,0,0,0,.394,5.586,5.368,5.368,0,0,0,1.035,2.274,6.787,6.787,0,0,0,1.131,1.03,58.037,58.037,0,0,0,8.095,4.758,2,2,0,0,0,2.019-3.454,68.2,68.2,0,0,1-7.511-4.319c-.075-.053-.228-.122-.277-.2q.348.271.1.077l-.092-.077c-.165-.139-.312-.29-.468-.438-.112-.107-.3-.41.094.137a1.143,1.143,0,0,1-.112-.187c.258.572.022,0-.011-.108-.057-.182-.106-.367-.149-.553s-.078-.384-.114-.577c-.079-.421,0,.208-.036-.265-.035-.41-.068-.819-.084-1.231-.031-.816-.022-1.633-.017-2.45a2,2,0,0,0-4,0Z"/><path class="a" d="M355.5,187.914c.006.931.015,1.864-.04,2.8-.014.241-.038.481-.056.722-.032.423.048-.174-.034.275s-.207.882-.32,1.327c-.108.422.092-.169.023-.025-.021.044-.1.118-.107.163.078-.366.322-.355.08-.135-.08.074-.154.155-.234.228a2.93,2.93,0,0,1-.5.424c.516-.288.023-.022-.1.066s-.222.159-.333.237a66.9,66.9,0,0,1-7.22,4.208,2.016,2.016,0,0,0-.718,2.736,2.046,2.046,0,0,0,2.737.718,58.976,58.976,0,0,0,7.659-4.522,6.228,6.228,0,0,0,2.571-3.035,19.038,19.038,0,0,0,.593-6.182,2,2,0,1,0-4,0Z"/><path class="a" d="M381.061,129.4a52.022,52.022,0,0,0,8.333,13.826,43.145,43.145,0,0,0,5.487,5.9,13.5,13.5,0,0,0,5.608,3.3c2.508.553,3.58-3.3,1.063-3.857-.2-.045-.4-.1-.6-.161-.142-.041-.459-.181-.145-.043a9.4,9.4,0,0,1-1.145-.614,13.852,13.852,0,0,1-2.228-1.7,44.356,44.356,0,0,1-5.215-5.666,62.341,62.341,0,0,1-4.405-6.385,37.1,37.1,0,0,1-2.9-5.676,2.054,2.054,0,0,0-2.46-1.4,2.017,2.017,0,0,0-1.4,2.46Z"/><path class="a" d="M321.869,280.427a53.776,53.776,0,0,1-12.157-8.09c-2.989-2.79-4.864-5.873-5.13-10.022-.333-5.187,1.775-9.641,3.568-14.37,1.828-4.824,3.508-9.7,5.283-14.547a125.3,125.3,0,0,1,5.762-14.1,28.235,28.235,0,0,1,7.1-9.376,31.329,31.329,0,0,1,9.114-5.392,66.3,66.3,0,0,1,9.745-2.585c.709-.126.39,0,1.066-.137.695-.14-.747-.063-.514-.216a10.5,10.5,0,0,1,1.463.819,58.091,58.091,0,0,0,6.384,2.925,50.3,50.3,0,0,0,14.769,3.392A41.769,41.769,0,0,0,383.105,207a53.579,53.579,0,0,0,12.734-5.556c.223-.138.671-.244-.066-.014-.115.036-.484-.037-.276.055a2.262,2.262,0,0,0,.519.042c-.484-.053.245.052.365.074.337.063.672.135,1.006.209,1.57.348,3.125.769,4.669,1.215a36.927,36.927,0,0,1,8.714,3.413c3.339,1.956,6.7,4.254,8.963,7.451a58.8,58.8,0,0,1,6.283,12.277c1.946,4.847,3.683,9.775,5.446,14.691.876,2.44,1.757,4.879,2.678,7.3.9,2.355,1.98,4.669,2.685,7.089,1.156,3.969,1.415,8.916-.663,12.65s-5.8,6.489-9.306,8.773a74.687,74.687,0,0,1-6.515,3.759c-2.288,1.182-.267,4.635,2.019,3.454a57.493,57.493,0,0,0,12.966-8.716,18.284,18.284,0,0,0,6.115-11.109,23.584,23.584,0,0,0-.263-7.847,45.771,45.771,0,0,0-2.616-7.646c-1.972-5.078-3.743-10.23-5.606-15.348-1.85-5.08-3.737-10.194-6.064-15.079a31.674,31.674,0,0,0-7.524-10.515,36.726,36.726,0,0,0-10.313-6.519,77.57,77.57,0,0,0-10.108-3.039,14.47,14.47,0,0,0-3.549-.581,4.712,4.712,0,0,0-2.212.866q-1.5.843-3.049,1.6a47.29,47.29,0,0,1-14.331,4.57,39.857,39.857,0,0,1-15.967-1.3,50.665,50.665,0,0,1-7.075-2.511q-1.556-.692-3.066-1.48a13.752,13.752,0,0,0-2.554-1.329,8.747,8.747,0,0,0-3.762.326c-1.727.346-3.438.783-5.135,1.255a37.129,37.129,0,0,0-9.875,4.13,31.167,31.167,0,0,0-9.648,8.686,66.882,66.882,0,0,0-6.649,13.454c-2.012,5.066-3.806,10.214-5.653,15.342-.926,2.568-1.864,5.133-2.856,7.677a42,42,0,0,0-2.618,7.881c-.791,4.474-.548,9.541,1.808,13.543,2.387,4.055,6.346,7.121,10.207,9.681a73.691,73.691,0,0,0,6.887,4c2.283,1.18,4.309-2.27,2.019-3.454Z"/><path class="b" d="M370.222,218.84c-21.779.157-43.452.284-51.148.31a2.212,2.212,0,0,0-2.206,2.222c.045,12.5.648,55.774,1.107,71.679a2.216,2.216,0,0,0,2.254,2.151c6.954-.107,28.5-.041,49.993.032,21.5-.073,43.039-.139,49.994-.032a2.216,2.216,0,0,0,2.253-2.151c.459-15.9,1.063-59.176,1.107-71.679a2.211,2.211,0,0,0-2.206-2.222C413.675,219.124,392,219,370.222,218.84Z"/><path class="a" d="M370.4,216.84q-23.007.165-46.015.288l-3.353.015a8.459,8.459,0,0,0-3.484.388c-2.62,1.173-2.5,3.794-2.489,6.21q.043,6.5.128,13,.2,17.3.506,34.6.133,7.722.3,15.444c.046,1.994.056,3.993.151,5.985a4.423,4.423,0,0,0,2.32,3.968,7.279,7.279,0,0,0,3.489.442c14-.137,28.008-.016,42.009.03,15.976.052,31.951-.093,47.926-.063,2.353,0,4.7.01,7.058.034a6.6,6.6,0,0,0,3.66-.587,4.565,4.565,0,0,0,2.053-4.013c.162-4.391.213-8.789.3-13.182q.341-17.418.556-34.837.1-7.6.179-15.21.027-2.853.048-5.7c.016-2.465.056-5.193-2.729-6.221a9.759,9.759,0,0,0-3.355-.287l-3.381-.016q-4.533-.023-9.066-.048-11.862-.068-23.722-.148-6.545-.044-13.09-.091c-2.574-.019-2.577,3.981,0,4q22.291.16,44.582.281c2.086.01,4.215-.1,6.3.028.7.044.476.46.472,1.218s-.009,1.542-.015,2.313q-.046,6.39-.129,12.779-.2,16.626-.486,33.25-.132,7.542-.292,15.082-.066,2.959-.143,5.917a9.708,9.708,0,0,1-.032,1.158c-.046.306.055.294-.341.335a23.951,23.951,0,0,1-2.541-.027c-13.726-.1-27.455-.006-41.181.039-15.46.051-30.92-.085-46.38-.065q-3.648,0-7.294.027a14.32,14.32,0,0,1-2.509.027c-.334-.061-.215-.044-.259-.336a11.4,11.4,0,0,1-.037-1.359c-.116-4.326-.2-8.652-.287-12.978q-.323-16.745-.533-33.492-.1-7.355-.175-14.709-.029-2.872-.051-5.744-.009-1.149-.015-2.3a3.994,3.994,0,0,1,0-.914c.075-.277.12-.2.568-.223,2.1-.128,4.248-.018,6.353-.029q4.478-.023,8.956-.049,11.436-.066,22.874-.143l12.6-.088C372.975,220.821,372.981,216.821,370.4,216.84Z"/><path class="a" d="M327.554,286.757c23.385-.144,46.774.019,70.16-.016,5.179-.008,10.359-.016,15.538.016,2.574.016,2.577-3.984,0-4-23.386-.144-46.775.019-70.161-.016-5.179-.008-10.358-.016-15.537.016-2.574.016-2.579,4.016,0,4Z"/><path class="a" d="M370.4,248.882c-1.591.015-3.182.036-4.773.038a2.031,2.031,0,0,0-2,2q-.009,2.5-.006,5.006c0,.98,0,1.96.011,2.94,0,.353,0,.706.015,1.058a2.078,2.078,0,0,0,2.169,2.133c2.859,0,5.719-.019,8.578-.006a3.451,3.451,0,0,0,1.764-.259,2.362,2.362,0,0,0,1-2.3c.013-.918.015-1.835.017-2.753q.007-2.907,0-5.814a2.03,2.03,0,0,0-2-2c-1.591,0-3.182-.023-4.772-.038a2,2,0,0,0,0,4c1.59.015,3.181.036,4.772.038l-2-2c.012,3.047.053,6.1-.023,9.144l.273-1.009h0l1.727-.99c-.525-.048-1.066-.015-1.592-.015-1.052,0-2.105.011-3.157.011-1.028,0-2.056-.01-3.084-.011-.55,0-1.117-.036-1.666.015l1.727.99h0l.273,1.009c-.076-3.046-.035-6.1-.023-9.144l-2,2c1.591,0,3.182-.023,4.773-.038a2,2,0,0,0,0-4Z"/><path class="a" d="M365.678,175.253a12.587,12.587,0,0,0,6.061,1.413,9.969,9.969,0,0,0,6.213-1.874,2,2,0,0,0,0-2.829,2.062,2.062,0,0,0-2.828,0c.687-.535-.057.009-.276.124-.17.089-.633.23-.015.027-.167.054-.328.126-.5.18-.211.068-.425.125-.641.176a2.9,2.9,0,0,0-.746.14c.157-.106.332-.039,0-.006-.136.014-.273.025-.409.034q-.494.031-.987.028c-.294,0-.589-.012-.883-.032-.135-.009-.27-.02-.4-.034-.077-.007-.154-.016-.231-.025q-.232-.028.166.022a2.034,2.034,0,0,1-.665-.124q-.318-.071-.632-.164c-.181-.054-.358-.12-.538-.181-.459-.157.407.2-.009,0-.222-.1-.442-.214-.659-.329a2,2,0,0,0-2.019,3.454Z"/><path class="a" d="M370.5,161.265a27.066,27.066,0,0,1,.642,2.937l-.071-.532a1.78,1.78,0,0,1,.011.406l.071-.532a.975.975,0,0,1-.044.183l.2-.478a.7.7,0,0,1-.064.117l.313-.405a.663.663,0,0,1-.1.095l.4-.313a1.837,1.837,0,0,1-.232.123l.478-.2a1.72,1.72,0,0,1-.393.114l.532-.071a1.617,1.617,0,0,1-.368,0l.532.071c-.139-.019-.275-.053-.414-.071a1.506,1.506,0,0,0-.8-.036,1.486,1.486,0,0,0-.743.237,2,2,0,0,0-.718,2.737,1.918,1.918,0,0,0,1.2.919c.359.048.708.138,1.075.154a3.509,3.509,0,0,0,1.64-.4,2.473,2.473,0,0,0,1.339-1.618,3.847,3.847,0,0,0-.014-1.688c-.16-.947-.378-1.884-.622-2.813a2,2,0,0,0-2.46-1.4,2.022,2.022,0,0,0-1.195.92,2.1,2.1,0,0,0-.2,1.541Z"/><path class="a" d="M355.443,152.814c-.49,1.595-.171,5.262,2.85,5.574,3.991-.024,4.2-4.458,2.86-6.542C360.053,150.139,356.818,149.429,355.443,152.814Z"/><path class="a" d="M387.408,152.815c.491,1.594.171,5.261-2.849,5.573-3.992-.024-4.2-4.458-2.86-6.542C382.8,150.139,386.034,149.429,387.408,152.815Z"/><path class="b" d="M370.221,2.28c-8.227,6.9-25.241,21.23-32.156,27.031,1.387,0,7.5-.016,8.685.008l.229.005c0,1.3,0,2.566,0,2.566,0,5.528,0,20.272,0,26.36h46.475c0-6.088,0-20.832,0-26.36V29.309c-.678.009,7.528-.019,8.923.01-6.908-5.8-23.934-20.132-32.165-27.039"/><path class="b" d="M393.461,42.365V40.378h-.088c-4.037.01-11.081.06-12.6.058,0,6.338,0,13.881,0,17.813h12.686C393.459,54.71,393.46,48.243,393.461,42.365Z"/><path class="a" d="M339.472,30.733q12.836-10.771,25.65-21.567,3.257-2.738,6.514-5.471c1.974-1.657-.868-4.474-2.829-2.829q-13.176,11.058-26.332,22.139-2.915,2.451-5.832,4.9c-1.974,1.657.868,4.473,2.829,2.828Z"/><path class="a" d="M403.8,27.905Q390.963,17.133,378.149,6.338,374.893,3.6,371.636.866c-1.96-1.644-4.8,1.171-2.829,2.829q13.177,11.057,26.332,22.139,2.916,2.449,5.832,4.9c1.96,1.645,4.8-1.171,2.829-2.828Z"/><path class="a" d="M344.98,31.89q0,13.18,0,26.36a2.03,2.03,0,0,0,2,2h46.475a2.029,2.029,0,0,0,2-2q0-13.18,0-26.36c0-2.574-4-2.578-4,0q0,13.18,0,26.36l2-2H346.984l2,2q0-13.18,0-26.36c0-2.574-4-2.578-4,0Z"/><path class="a" d="M382.773,58.25q0-8.907,0-17.813l-2,2c4.2,0,8.4-.047,12.6-.058,2.574-.007,2.579-4.007,0-4-4.2.011-8.4.06-12.6.058a2.03,2.03,0,0,0-2,2q0,8.906,0,17.813c0,2.574,4,2.578,4,0Z"/></svg>