<?xml version="1.0" encoding="utf-8"?>
<!-- Uploaded to: SVG Repo, www.svgrepo.com, Generator: SVG Repo Mixer Tools -->
<svg width="800px" height="800px" viewBox="-46.89 0 376.791 376.791" xmlns="http://www.w3.org/2000/svg"><defs><style>.a{fill:#ffffff;}.b{fill:#211715;}.c{fill:#7a7473;}.d{fill:#bdbdbd;}.e{fill:#66bd6f;}</style></defs><path class="a" d="M196.476,93.973a8.391,8.391,0,0,1,6.713-1.964,7.924,7.924,0,0,1,5.7,3.787,11.2,11.2,0,0,1,1.173,4.506,33.558,33.558,0,0,1-3.423,17.791,21.327,21.327,0,0,1-5.516,7.24,14.136,14.136,0,0,1-6.577,2.965l-1.116.171c-.55,2.023-1.156,3.725-1.454,4.628-1.988,5.4-13.465,24.583-27.681,30.451a77.761,77.761,0,0,0,1.128,11.118c.664,3.884.437,7.352,5.825,9.322.357.131,3.351,1.326,4.157,1.685,0,0,3.36,26.853-34.863,26.853s-34.941-27.45-34.941-27.45c.662-.28,2.905-1.208,3.262-1.336,5.4-1.927,5.2-5.4,5.9-9.275a77.716,77.716,0,0,0,1.213-11.033c-6.265-2.8-12.011-7.44-17.134-13.571a57.092,57.092,0,0,1-10.879-21.237c-1.337-.2-2.143-.326-2.143-.326a14.127,14.127,0,0,1-6.577-2.965,21.343,21.343,0,0,1-5.517-7.24A33.567,33.567,0,0,1,70.3,100.3,11.2,11.2,0,0,1,71.473,95.8a7.924,7.924,0,0,1,5.7-3.787,8.391,8.391,0,0,1,6.713,1.964S79.205,41.86,136.094,41.86C199.205,41.86,196.476,93.973,196.476,93.973Z"/><path class="b" d="M113.55,164.023a74.117,74.117,0,0,1-.9,8.6,47.692,47.692,0,0,1-.985,5.436c-.051.176-.107.35-.165.523-.217.647.212-.376-.092.234a6.061,6.061,0,0,1-.565.949c.263-.352-.207.2-.223.221a5.392,5.392,0,0,1-.453.416c-.133.109.007.008-.256.174-.245.155-.494.3-.751.436-1.331.695-2.819,1.162-4.2,1.745a2.482,2.482,0,0,0-1.677,2.952,2.416,2.416,0,0,0,2.953,1.677c1.764-.744,3.653-1.346,5.349-2.23a9.3,9.3,0,0,0,4.509-5.195,33.868,33.868,0,0,0,1.154-5.862,85.077,85.077,0,0,0,1.1-10.081,2.4,2.4,0,1,0-4.8,0Z"/><path class="b" d="M161.907,164.108A84.97,84.97,0,0,0,162.97,174.5a28.431,28.431,0,0,0,1.232,6.085,9.5,9.5,0,0,0,5.173,5.22c.845.372,1.716.687,2.572,1.03q.693.278,1.384.558l.742.3c.218.09-.386-.169.116.052a2.479,2.479,0,0,0,3.284-.861,2.418,2.418,0,0,0-.861-3.284c-1.538-.675-3.1-1.294-4.668-1.9a9.251,9.251,0,0,1-1.291-.606,4.1,4.1,0,0,1-.94-.669c-.146-.144-.291-.286-.426-.439-.355-.4.068.148-.182-.258-.118-.193-.228-.387-.331-.588-.315-.613.12.4-.1-.248a34.152,34.152,0,0,1-1.072-5.669,74.416,74.416,0,0,1-.891-9.112c-.114-3.079-4.915-3.094-4.8,0Z"/><path class="c" d="M184.682,81.417A70.2,70.2,0,0,0,163.729,65.1l-11.535-2.736c-7.15,3.275-20.088,10.342-21.214,9.857-.776-.333-2.185-3.585-3.192-6.689a24.751,24.751,0,0,1-1.153-4.767A531.151,531.151,0,0,0,85.908,97.785c-.478-3.994-4.83-6.36-8.739-5.776a8.056,8.056,0,0,0-1.929.541c-4.338-17.946-3.26-33.136.372-43.8,3.3-9.673,10.734-20.69,20.125-25.566-3.181-1.507-6.814-3.244-6.814-3.244C103.04,5.729,121.61,2.474,137.729,2.967c17.209.526,30.655,7.3,38.722,18.351L185.728,29c7.6,3.938,14.734,12.049,18.438,22.4,5.269,14.732,4.657,30.259.486,40.963a8.25,8.25,0,0,0-1.463-.36c-3.457-.517-7.261,1.275-8.4,4.467A70.015,70.015,0,0,0,184.682,81.417Z"/><path class="b" d="M184.516,31.074c15.746,8.273,21.641,27.958,20.984,44.646a51.708,51.708,0,0,1-2.423,13.951c-.956,2.945,3.677,4.207,4.628,1.276a61.536,61.536,0,0,0,1.768-28.409c-1.543-9.813-5.208-19.3-11.738-26.874a37.408,37.408,0,0,0-10.8-8.735c-2.732-1.435-5.161,2.706-2.423,4.145Z"/><path class="b" d="M97.975,19.6C87.908,23.367,80.437,32.45,75.864,41.9c-4.477,9.254-6.051,19.6-5.832,29.818A101.738,101.738,0,0,0,72.9,93.061c.715,3,5.345,1.732,4.628-1.276-4.634-19.466-4.328-41.8,9.108-57.871,3.4-4.071,7.585-7.8,12.62-9.69a2.468,2.468,0,0,0,1.676-2.953A2.419,2.419,0,0,0,97.975,19.6Z"/><path class="b" d="M178.523,19.681C170.883,9.305,159.276,3.028,146.65,1c-12.918-2.074-27.112-.979-39.34,3.79A58.2,58.2,0,0,0,87.226,17.814c-2.189,2.185,1.2,5.58,3.394,3.394C99.68,12.16,111.666,7.029,124.3,5.5c12.034-1.458,24.987-.782,35.955,4.811A40.048,40.048,0,0,1,174.378,22.1a2.474,2.474,0,0,0,3.284.861,2.418,2.418,0,0,0,.861-3.284Z"/><path class="b" d="M150.982,60.291c-5.521,2.538-10.865,5.442-16.359,8.036-.568.268-1.138.533-1.712.788-.2.089-.4.178-.6.264.52-.221-.22.086-.315.122-.318.123-.645.216-.965.332-.081.03-.23.023-.3.072.6-.408,1.089.457,1.725.457q-.24-.262-.013,0c-.075-.11-.146-.224-.212-.34-.175-.331-.362-.654-.526-.992a26.417,26.417,0,0,1-1.014-2.45,26.605,26.605,0,0,1-1.65-5.819,2.436,2.436,0,0,0-4.1-1.7C114.352,67.865,104,76.9,94.07,86.439q-5.2,5-10.317,10.1c-2.2,2.179,1.2,5.573,3.394,3.394,10.3-10.23,20.831-20.207,31.874-29.64q4.624-3.949,9.312-7.828l-4.1-1.7a33.281,33.281,0,0,0,3.241,10.527c1,2.111,2.422,3.852,4.944,3.137a34.7,34.7,0,0,0,5.381-2.316c2.476-1.187,4.926-2.429,7.38-3.66,2.727-1.368,5.452-2.742,8.224-4.016a2.42,2.42,0,0,0,.861-3.284,2.456,2.456,0,0,0-3.284-.861Z"/><path class="b" d="M162.518,67.171a68.751,68.751,0,0,1,31.207,32.651,2.418,2.418,0,0,0,3.283.861,2.457,2.457,0,0,0,.861-3.284A72.907,72.907,0,0,0,164.94,63.027c-2.746-1.4-5.177,2.738-2.422,4.144Z"/><path class="b" d="M198.173,95.67a5.917,5.917,0,0,1,8.257.731c1.207,1.542,1.274,3.817,1.333,5.68a30.05,30.05,0,0,1-.381,6.022c-1.276,7.419-5.21,16.469-13.478,17.881a2.42,2.42,0,0,0-1.677,2.952,2.456,2.456,0,0,0,2.953,1.676c8.411-1.436,13.415-9.321,15.782-16.887a35.4,35.4,0,0,0,1.56-12.534c-.243-4.155-1.444-8.077-5.263-10.262a10.891,10.891,0,0,0-12.48,1.347,2.421,2.421,0,0,0,0,3.394,2.448,2.448,0,0,0,3.394,0Z"/><path class="b" d="M192.055,122.052a28.48,28.48,0,0,1-1.376,7.266c-.258.858-.541,1.708-.826,2.558-.077.231-.151.464-.236.692-.036.1-.079.191-.113.288-.171.5.14-.31.031-.069a58.563,58.563,0,0,1-3.746,6.854,66.68,66.68,0,0,1-15.018,17.284,28.47,28.47,0,0,1-11.011,5.548c-3.01.691-1.736,5.32,1.276,4.628,8.359-1.918,15.358-7.942,20.874-14.243A72.382,72.382,0,0,0,193.5,135.622a36.52,36.52,0,0,0,3.359-13.57c.1-3.09-4.7-3.086-4.8,0Z"/><path class="b" d="M85.579,92.276A10.846,10.846,0,0,0,74.693,90.2c-4.108,1.594-6.178,5.011-6.7,9.264A34.387,34.387,0,0,0,74,123.2a17.838,17.838,0,0,0,11.178,7.413,2.47,2.47,0,0,0,2.952-1.676,2.419,2.419,0,0,0-1.676-2.952c-8.268-1.412-12.2-10.461-13.478-17.881a30.124,30.124,0,0,1-.381-6.022c.058-1.872.133-4.128,1.333-5.68a5.913,5.913,0,0,1,8.257-.731,2.461,2.461,0,0,0,3.394,0,2.421,2.421,0,0,0,0-3.394Z"/><path class="b" d="M83.839,121.213a67.389,67.389,0,0,0,8.587,23.813c4.868,7.929,11.907,15.1,20.195,19.44a39.117,39.117,0,0,0,14.21,4.274,2.417,2.417,0,0,0,2.4-2.4,2.454,2.454,0,0,0-2.4-2.4c-16.916-1.749-30.075-16.921-35.367-32.166a75.235,75.235,0,0,1-3-11.837,2.419,2.419,0,0,0-2.952-1.676,2.455,2.455,0,0,0-1.677,2.952Z"/><path class="b" d="M130.463,142.876a22.063,22.063,0,0,0,10.626,2.451c3.768-.024,7.618-.748,10.642-3.1a2.414,2.414,0,0,0,0-3.394,2.461,2.461,0,0,0-3.395,0c.7-.548.068-.067-.112.049-.218.139-.442.268-.67.388-.145.076-.915.412-.345.184-.305.122-.612.235-.925.336a16.416,16.416,0,0,1-5.543.74,17.09,17.09,0,0,1-5.29-.712c-.339-.1-.669-.222-1-.337-.109-.038-.213-.093-.323-.126.582.175.133.06-.012-.008q-.621-.292-1.228-.613a2.452,2.452,0,0,0-3.283.861,2.426,2.426,0,0,0,.861,3.284Z"/><path class="b" d="M140.058,117.6a50.8,50.8,0,0,1,1.2,5.476l-.086-.638a3.232,3.232,0,0,1,.021.755l.086-.638a1.875,1.875,0,0,1-.083.34l.242-.573a1.4,1.4,0,0,1-.12.218l.375-.485a1.146,1.146,0,0,1-.179.176l.486-.375a3.6,3.6,0,0,1-.434.229l.573-.242a3.147,3.147,0,0,1-.731.214l.638-.086a2.97,2.97,0,0,1-.686,0l.638.085c-.258-.036-.512-.1-.771-.134a2.655,2.655,0,0,0-1.849.242,2.4,2.4,0,0,0-.861,3.284,2.3,2.3,0,0,0,1.434,1.1c.553.074,1.089.216,1.651.241a5.2,5.2,0,0,0,2.387-.561A3.36,3.36,0,0,0,145.873,124a5.737,5.737,0,0,0-.027-2.44c-.3-1.764-.705-3.512-1.159-5.243a2.4,2.4,0,0,0-4.629,1.276Z"/><path class="b" d="M110.716,102.2c-.915,2.972-.319,9.807,5.31,10.388,7.44-.044,7.836-8.308,5.332-12.193C119.307,97.212,113.278,95.889,110.716,102.2Z"/><path class="b" d="M170.294,102.2c.915,2.971.319,9.806-5.31,10.387-7.44-.044-7.836-8.308-5.332-12.194C161.7,97.212,167.732,95.889,170.294,102.2Z"/><path class="a" d="M143.491,181.79l-6.409-.013a1.228,1.228,0,0,0,.028-.722c-.153-.506-.689-.775-1.17-1a80.613,80.613,0,0,1-23.206-16.311,40.4,40.4,0,0,0-8.5,11.607c2.127,7.812,5.521,22.065,10.419,36.28,8.791,25.512,20.864,53.992,27.366,68.181l.733,1.158c7.8-18.576,18.149-47.385,25.326-71.128a333.464,333.464,0,0,0,8.369-34.948,39.76,39.76,0,0,0-8.03-10.92A80.631,80.631,0,0,1,145.078,180.1c-.483.217-1.021.481-1.178.986a1.19,1.19,0,0,0,.019.7Z"/><path class="d" d="M151.073,357.123H56.217C38.87,353.738,7.639,335.73,5.086,330.991c-4.062-7.545-2.877-19.249.086-29.323C13.1,274.72,18.224,262.4,27.318,235.789c2.952-8.642,6.213-21.462,12.888-27.856,4.423-4.237,13.474-9.253,19.14-11.708,16.622-7.2,30.262-12.827,45.312-19.283,2.139,8.047,5.406,21.387,9.991,34.694,8.791,25.512,20.864,53.992,27.366,68.181l.666,1.32c7.8-18.571,18.195-47.478,25.393-71.29a332.169,332.169,0,0,0,8.143-33.731l1.368.468c15.382,6.607,30.134,12.529,46.146,19.641,5.643,2.507,14.717,7.471,19.14,11.708,6.675,6.394,9.935,19.214,12.888,27.856,9.094,26.615,14.219,38.931,22.146,65.879,2.962,10.074,4.148,21.778.085,29.323-2.552,4.739-33.783,22.747-51.13,26.132Z"/><path class="b" d="M176.373,178.656c9.965,4.278,19.993,8.409,29.977,12.641,9.033,3.829,18.263,7.447,26.7,12.5,3.336,2,6.768,4.159,9.349,7.116a35.953,35.953,0,0,1,5.787,10.213c1.592,3.928,2.867,7.973,4.171,12,1.489,4.6,3.1,9.168,4.7,13.734,6.019,17.189,12.21,34.3,17.438,51.749,2.635,8.8,5.341,18.671,2.741,27.819a16.352,16.352,0,0,1-.931,2.575c-.14.294-.292.581-.446.869-.055.1-.388.541-.091.156s-.048.046-.117.119c-.125.13-.246.264-.374.392-.3.3-.62.59-.944.87-.341.3-.693.579-1.045.861s-.015.015.046-.033c-.1.079-.2.157-.307.234-.27.2-.54.4-.813.6-1.057.768-2.138,1.5-3.231,2.221a171.432,171.432,0,0,1-18.369,10.349,121.414,121.414,0,0,1-20.081,8.105c-1.423.407-2.86.763-4.312,1.051a2.4,2.4,0,0,0,1.276,4.629c7.021-1.392,13.774-4.2,20.266-7.146A186.5,186.5,0,0,0,267.8,341.727c2.5-1.526,4.983-3.114,7.338-4.865a20.675,20.675,0,0,0,4.6-4.161c2.226-3.07,2.893-7.529,3.171-11.205a53.057,53.057,0,0,0-1.229-14.691c-1.092-5.255-2.8-10.389-4.386-15.511q-2.079-6.726-4.308-13.406c-2.806-8.4-5.8-16.746-8.754-25.1-3.187-9-6.18-18.065-9.259-27.1-2.766-8.12-6.084-16.312-13.063-21.7-7.481-5.771-16.184-9.545-24.794-13.27-10.207-4.416-20.489-8.655-30.735-12.983q-3.792-1.6-7.575-3.224a2.481,2.481,0,0,0-3.284.861,2.417,2.417,0,0,0,.861,3.283Z"/><path class="b" d="M233.861,203.636c-2.813,16.959-7.131,33.645-11.239,50.32-2.618,10.627-5.3,21.274-7.307,32.037a65.022,65.022,0,0,0-1.241,10.667q-.132,6.535-.156,13.073c-.047,10.911.033,21.822-.009,32.733-.012,3.089,4.788,3.093,4.8,0,.038-9.824-.016-19.647,0-29.471q.011-6.335.1-12.67c.031-2.059.011-4.131.133-6.187a35.5,35.5,0,0,1,.538-4.253c1.718-10.352,4.328-20.576,6.816-30.763,2.466-10.1,5.112-20.155,7.356-30.307,1.752-7.927,3.508-15.891,4.837-23.9a2.473,2.473,0,0,0-1.676-2.952,2.418,2.418,0,0,0-2.952,1.676Z"/><path class="b" d="M104.281,174.512c-9.731,4.178-19.5,8.271-29.247,12.405-9.143,3.877-18.551,7.422-27.1,12.521-3.641,2.171-7.439,4.57-10.322,7.72a38.442,38.442,0,0,0-6.674,11.081c-1.752,4.121-3.15,8.368-4.523,12.626-1.5,4.662-3.12,9.286-4.736,13.91C15.467,262.538,9.06,280.206,3.682,298.246c-2.814,9.44-5.292,20.079-2.37,29.813a13.417,13.417,0,0,0,3.749,6.5,52.84,52.84,0,0,0,5.99,4.48A167.446,167.446,0,0,0,29.89,349.723,130.365,130.365,0,0,0,51,358.309c1.51.438,3.036.822,4.579,1.128a2.461,2.461,0,0,0,2.952-1.676,2.424,2.424,0,0,0-1.676-2.953c-6.725-1.333-13.206-3.967-19.422-6.8A186.912,186.912,0,0,1,17.7,337.582c-2.419-1.473-4.81-3-7.093-4.684q-.36-.266-.717-.536c-.322-.244.252.21-.247-.2-.384-.311-.767-.623-1.136-.951-.29-.258-.575-.522-.844-.8-.107-.111-.207-.232-.316-.341-.426-.428.131.313,0,.019a27.741,27.741,0,0,1-1.7-4.36,27.9,27.9,0,0,1-.769-6.219,54.059,54.059,0,0,1,1.823-14.347c2.393-9.494,5.609-18.858,8.739-28.132,2.785-8.254,5.736-16.451,8.638-24.664,3.107-8.791,5.956-17.667,9.025-26.469a60.718,60.718,0,0,1,5.162-11.607,25.7,25.7,0,0,1,7.581-7.822c7.818-5.444,16.587-9.009,25.3-12.728,9.515-4.06,19.058-8.056,28.577-12.106q3.491-1.485,6.975-2.981a2.413,2.413,0,0,0,.861-3.283,2.461,2.461,0,0,0-3.283-.861Z"/><path class="b" d="M44.588,204.912c2.8,16.881,7.091,33.493,11.182,50.091,2.61,10.589,5.276,21.2,7.3,31.917a56.445,56.445,0,0,1,1.142,10.113q.128,6.435.149,12.872c.046,10.853-.033,21.707.009,32.561.012,3.088,4.812,3.094,4.8,0-.038-9.881.017-19.762,0-29.643q-.012-6.429-.106-12.858a74.988,74.988,0,0,0-.762-10.9c-1.669-10.354-4.3-20.579-6.78-30.76s-5.159-20.335-7.425-30.576c-1.768-7.989-3.54-16.015-4.879-24.09a2.419,2.419,0,0,0-2.952-1.676,2.456,2.456,0,0,0-1.676,2.952Z"/><path class="b" d="M50.459,305.334a64.96,64.96,0,0,0-8.454,1.889,2.422,2.422,0,0,0-1.676,2.953,2.451,2.451,0,0,0,2.952,1.676c2.464-.583,4.9-1.412,7.416-1.758l-.638.086c.133-.017.266-.033.4-.046a2.593,2.593,0,0,0,1.7-.7,2.4,2.4,0,0,0-1.7-4.1Z"/><path class="b" d="M233.273,310.567c.64.04,1.276.113,1.911.2l-.638-.086c2.185.3,4.351.7,6.531,1.03a2.63,2.63,0,0,0,1.85-.242,2.4,2.4,0,0,0,.861-3.283,2.311,2.311,0,0,0-1.435-1.1c-3.016-.45-6.031-1.122-9.08-1.313a2.415,2.415,0,0,0-2.4,2.4,2.456,2.456,0,0,0,2.4,2.4Z"/><path class="e" d="M145.945,184.874a22.822,22.822,0,0,1-1.782-2.468,3.563,3.563,0,0,1-.244-.615l-6.837-.014a4.036,4.036,0,0,1-.246.592,83.62,83.62,0,0,1-5.3,6.743c.4,2,.9,4.068,1.354,6.058q.157.69.329,1.38a12.139,12.139,0,0,1,.489,3.058c-.009.767-3.3,26.88-5.809,46.753,5.723,13.927,11.267,26.429,14.869,34.29l.062.134c3.95-9.434,8.55-21.47,13.058-34.13-2.8-19.445-6.67-45.492-6.649-46.644a18.548,18.548,0,0,1,1.212-5.419c.257-.772.575-2.146.811-3.113C149.245,189.01,147.295,186.608,145.945,184.874Z"/><path class="b" d="M133.868,201.893c5.126.019,10.252-.072,15.377-.054a2.4,2.4,0,0,0,0-4.8c-5.125-.018-10.251.073-15.377.054a2.4,2.4,0,0,0,0,4.8Z"/><path class="b" d="M144.254,179.392l-7.63-.016a2.4,2.4,0,0,0,0,4.8l7.63.016a2.4,2.4,0,0,0,0-4.8Z"/><path class="b" d="M158.273,246.475q-1.914-13.27-3.856-26.537-.817-5.626-1.622-11.253-.312-2.183-.615-4.366-.117-.846-.232-1.693c.073.535,0,.012-.028-.21q-.048-.364-.095-.731c-.068-.534-.166-1.08-.181-1.619-.068-2.542,1.289-5.179,1.957-7.595.825-2.982-3.8-4.254-4.628-1.276-.884,3.195-2.435,6.442-2.031,9.827.282,2.357.626,4.709.958,7.06,1.146,8.12,2.339,16.233,3.521,24.348q1.116,7.661,2.223,15.321a2.415,2.415,0,0,0,2.952,1.677,2.464,2.464,0,0,0,1.677-2.953Z"/><path class="b" d="M129.273,189.752c.5,2.564,1.074,5.113,1.689,7.652a7.994,7.994,0,0,1,.293,2.809c-.215,2.016-.475,4.028-.722,6.04q-1.473,12-3,23.984-.987,7.846-1.98,15.691a2.413,2.413,0,0,0,2.4,2.4,2.459,2.459,0,0,0,2.4-2.4c1.914-15.138,3.973-30.27,5.667-45.435a10.707,10.707,0,0,0-.185-3.281c-.562-2.927-1.371-5.808-1.938-8.736a2.423,2.423,0,0,0-2.952-1.677,2.45,2.45,0,0,0-1.676,2.953Z"/><path class="a" d="M122.367,200.151c-7.443-7.456-12.3-16.47-17.786-25.477a39.826,39.826,0,0,1,8.153-10.925A80.613,80.613,0,0,0,135.94,180.06c.481.22,1.017.489,1.17,1a1.869,1.869,0,0,1-.274,1.314C136.134,183.809,126.263,195.392,122.367,200.151Z"/><path class="a" d="M158.491,200.3c7.5-7.4,12.432-16.372,17.988-25.335a39.853,39.853,0,0,0-8.066-10.989A80.631,80.631,0,0,1,145.078,180.1c-.483.217-1.021.481-1.178.986a1.868,1.868,0,0,0,.263,1.316C144.854,183.851,154.632,195.513,158.491,200.3Z"/><path class="b" d="M124.064,198.454c-7.213-7.282-12.129-16.3-17.411-24.991v2.422a38.534,38.534,0,0,1,7.778-10.439h-3.394a82.4,82.4,0,0,0,11.895,9.928q3.03,2.094,6.239,3.912,1.647.932,3.339,1.781.737.369,1.481.722.441.209.883.413a2.184,2.184,0,0,1,.288.15q.348.2-.124-.085l-.328-1.212c.033.267-.27.619-.481.91-.088.121-.18.241-.27.362-.041.056-.335.442-.129.172s-.185.237-.23.294l-.331.42c-1.333,1.68-2.7,3.334-4.068,4.986-2.837,3.424-5.713,6.816-8.531,10.255a2.469,2.469,0,0,0,0,3.394,2.419,2.419,0,0,0,3.394,0c4.057-4.95,8.245-9.8,12.243-14.794,1.5-1.881,4.239-4.573,2.875-7.21-1.021-1.974-3.879-2.7-5.733-3.687-2.149-1.137-4.243-2.379-6.279-3.708a76.654,76.654,0,0,1-12.739-10.4,2.446,2.446,0,0,0-3.394,0,40.846,40.846,0,0,0-7.318,9.236,12.406,12.406,0,0,0-1.452,2.748c-.352,1.277.548,2.35,1.163,3.371,1.027,1.7,2.042,3.413,3.068,5.116,4.13,6.855,8.514,13.614,14.172,19.325C122.847,204.046,126.241,200.652,124.064,198.454Z"/><path class="b" d="M160.188,202c5.7-5.665,10.137-12.394,14.321-19.215,1.039-1.695,2.068-3.4,3.108-5.091.626-1.02,1.528-2.083,1.176-3.364a12.1,12.1,0,0,0-1.33-2.576,40.953,40.953,0,0,0-7.353-9.472,2.442,2.442,0,0,0-3.394,0,76.089,76.089,0,0,1-11.363,9.331q-2.963,1.992-6.092,3.72-1.565.862-3.168,1.652a26.982,26.982,0,0,0-2.933,1.436c-3.433,2.25-.856,5.645.891,7.9,1.95,2.515,3.973,4.973,5.989,7.434,2.253,2.748,4.523,5.482,6.754,8.248a2.415,2.415,0,0,0,3.394,0,2.457,2.457,0,0,0,0-3.394c-2.792-3.462-5.64-6.876-8.45-10.323q-2-2.451-3.959-4.93c-.114-.144-.3-.386-.085-.106l-.352-.461c-.2-.258-.39-.517-.578-.78-.218-.306-.5-.641-.464-.916l-.328,1.212c-.111.224-.4.2.024.012.285-.126.566-.26.849-.39q.746-.344,1.485-.7,1.7-.828,3.353-1.743,3.32-1.83,6.456-3.965a82.455,82.455,0,0,0,11.971-9.836h-3.394a38.508,38.508,0,0,1,7.69,10.5v-2.423c-5.351,8.646-10.34,17.623-17.612,24.849C154.6,200.786,157.993,204.181,160.188,202Z"/><path class="d" d="M142.772,280.651c-6.5-14.19-19.332-43.5-28.123-69.015-5.49-15.934-9.091-31.916-11.127-38.822-3.88.308-20.123,21.6-22.783,28.421-.176.453,7.859,7.757,11.408,10.966-1.819,1.564-8.649,9.5-8.771,10.294-.095.613,42.257,52.919,54.379,68.464"/><path class="d" d="M134.505,304.641a68.388,68.388,0,0,1,2.553-11.051c7.609-15.107,21.882-53.527,31.016-83.743a333.551,333.551,0,0,0,8.738-37.026c3.973.534,19.908,21.781,22.5,28.6.176.462-8.186,7.932-11.666,11.027,1.515,1.171,8.741,9.682,8.861,10.5.09.614-31.788,49.768-48.721,75.059"/><path class="b" d="M144.844,279.439q-8.464-18.483-16.1-37.333c-6.42-15.818-12.455-31.8-17.081-48.248-2.026-7.2-3.716-14.5-5.822-21.682a2.425,2.425,0,0,0-2.314-1.762c-2.836.314-5.085,2.817-6.957,4.764a113.409,113.409,0,0,0-8.321,9.945,120.043,120.043,0,0,0-7.215,10.414,35.759,35.759,0,0,0-2.139,3.951,3.156,3.156,0,0,0-.2,3.061,8,8,0,0,0,1.225,1.492c3.3,3.48,6.977,6.641,10.533,9.857V210.5a62.4,62.4,0,0,0-7.5,8.443c-.9,1.147-2.329,2.595-1.879,4.209a3.909,3.909,0,0,0,.689,1.237c2.738,3.769,5.722,7.374,8.619,11.019,10.477,13.179,21.039,26.289,31.552,39.44,4.73,5.918,9.471,11.83,14.131,17.8a2.413,2.413,0,0,0,3.394,0,2.461,2.461,0,0,0,0-3.394c-9.136-11.712-18.49-23.255-27.777-34.847q-7.677-9.58-15.339-19.174-2.968-3.723-5.923-7.457-1.11-1.407-2.216-2.819-.456-.584-.91-1.168l-.224-.288c-.282-.362.366.475.094.122l-.384-.5c-.37-.484-.722-.98-1.091-1.464a2.268,2.268,0,0,0-.218-.336c-.046-.005-2.224-8.264.228.54a2.158,2.158,0,0,1-.182,1.676c.028-.053.057-.1.088-.156.173-.2.309-.465.466-.68.108-.149.219-.3.331-.442-.322.422.16-.2.225-.281q.51-.639,1.035-1.269,1.083-1.3,2.2-2.577a44.7,44.7,0,0,1,3.989-4.243,2.416,2.416,0,0,0,0-3.394c-3.078-2.783-6.165-5.564-9.138-8.46-.513-.5-1.026-1-1.515-1.525-.159-.17-.308-.378-.48-.534-.3-.277.278.43.176.224-.319-.643.482,1.38.087,1.841a8.582,8.582,0,0,0,.734-1.521c.351-.672.726-1.33,1.112-1.982a115.15,115.15,0,0,1,13.815-18.554,44.219,44.219,0,0,1,3.712-3.724c.158-.138.987-.786.418-.365.227-.167.453-.335.693-.485.181-.113.383-.2.561-.313.245-.159-.62.229-.255.111.231-.075.653-.1-.242,0l-2.314-1.762c1.815,6.189,3.288,12.478,4.993,18.7,2.345,8.552,4.982,17,7.972,25.352,5.5,15.369,11.687,30.5,18.15,45.483q4.088,9.483,8.377,18.877a2.419,2.419,0,0,0,3.283.861,2.456,2.456,0,0,0,.861-3.284Z"/><path class="b" d="M136.905,304.641a56.146,56.146,0,0,1,1.878-8.365,28.611,28.611,0,0,1,1.811-4.491c1.477-3.144,2.856-6.334,4.205-9.535,3.419-8.118,6.59-16.34,9.648-24.6q5.221-14.106,9.965-28.382c3.314-9.972,6.531-19.993,9.156-30.171q3.276-12.7,5.558-25.638l-2.952,1.676c.12.02.676.194.211.027s.177.111.3.186c.192.116.371.249.556.375.326.221-.087-.072-.126-.1q.258.206.509.418a36.5,36.5,0,0,1,3.118,3.064,109.085,109.085,0,0,1,7.375,9c2.359,3.171,4.634,6.422,6.671,9.811.732,1.218,1.426,2.457,2.037,3.741a3.011,3.011,0,0,0,.195.437c-.391-.548-.066-.3-.073-.165,0-.112.552-2.19.2-1.509.323-.622.333-.374.161-.217-.467.425-.879.935-1.33,1.378-3.232,3.17-6.645,6.161-10.027,9.169a2.407,2.407,0,0,0,0,3.394c2.379,1.9,4.342,4.608,6.26,6.951q.359.439.713.882c.085.106.676.865.385.485a15.357,15.357,0,0,0,.987,1.393c.036.037.045.116.083.151-.345-.317-.212-1.587-.189-1.668-.043.155.406-.687.2-.471a2.177,2.177,0,0,0-.208.384c-2.031,3.416-4.19,6.755-6.331,10.1q-13.258,20.742-26.814,41.295-7.617,11.6-15.319,23.148c-1.723,2.574,2.433,4.98,4.145,2.423q14.683-21.934,29.007-44.109,6.343-9.762,12.632-19.561c2.281-3.565,4.665-7.1,6.767-10.776a3.719,3.719,0,0,0,.643-1.824c0-1.518-1.507-3-2.369-4.088-1.273-1.611-2.6-3.179-3.958-4.719a27.265,27.265,0,0,0-3.237-3.393v3.394c3.238-2.88,6.493-5.753,9.61-8.763.931-.9,2.326-1.99,2.675-3.3.41-1.535-.963-3.541-1.69-4.854a115.667,115.667,0,0,0-14.973-20.6,40.922,40.922,0,0,0-3.947-3.976,8.205,8.205,0,0,0-3.569-2.137c-1.183-.194-2.709.294-2.952,1.676a380.265,380.265,0,0,1-13.615,52.476c-5.979,18.249-12.444,36.39-19.8,54.133-1.438,3.469-2.932,6.936-4.531,10.352a37.3,37.3,0,0,0-2.332,5.628,65.137,65.137,0,0,0-2.114,9.869,2.413,2.413,0,0,0,2.4,2.4,2.459,2.459,0,0,0,2.4-2.4Z"/><path class="a" d="M141.883,241.883c-37.781.273-75.379.493-88.729.538a3.838,3.838,0,0,0-3.826,3.856c.077,21.689,1.123,96.753,1.92,124.344a3.843,3.843,0,0,0,3.909,3.731c12.065-.186,49.432-.071,86.726.056,37.294-.127,74.661-.242,86.726-.056a3.843,3.843,0,0,0,3.909-3.731c.8-27.591,1.843-102.655,1.921-124.344a3.839,3.839,0,0,0-3.827-3.856C217.262,242.376,179.664,242.156,141.883,241.883Z"/><path class="b" d="M141.883,239.483q-39.632.286-79.264.5l-5.956.028c-1.845.008-3.972-.239-5.714.438a6.471,6.471,0,0,0-4.019,6.42q.008,1.929.022,3.858.075,11.152.22,22.3.352,29.808.871,59.613.233,13.35.521,26.7.115,5.077.252,10.156c.083,2.986,1.042,5.666,4.06,6.834,1.684.651,3.659.4,5.438.386,24.215-.219,48.437-.023,72.651.056,27.533.091,55.065-.16,82.6-.11,4.1.007,8.2.018,12.3.058,1.99.019,4.09.257,5.891-.779,2.539-1.462,3.123-3.926,3.2-6.638.211-7.644.367-15.291.516-22.937q.579-29.892.952-59.789.174-13.12.309-26.241.048-4.987.084-9.977c.009-1.263.03-2.527.021-3.79a6.405,6.405,0,0,0-4.618-6.334,21.746,21.746,0,0,0-5.455-.228q-3.022-.012-6.043-.028-7.772-.038-15.544-.083-20.517-.117-41.035-.257-11.13-.075-22.26-.155c-3.089-.022-3.092,4.778,0,4.8q39.058.282,78.119.492,2.914.013,5.831.027c1.572.007,3.213-.122,4.779.019,1.588.144,1.427,1.637,1.421,2.9q-.01,1.972-.025,3.946-.081,11.112-.224,22.223-.346,29.06-.849,58.117-.228,13.105-.508,26.21-.114,5.152-.25,10.305c-.031,1.143.3,3.118-1.22,3.423a10.8,10.8,0,0,1-2.1-.013q-1.244-.013-2.485-.023c-23.854-.186-47.713-.013-71.567.065-27.045.09-54.09-.15-81.136-.112-4.236.006-8.472.015-12.708.05a19.794,19.794,0,0,1-4.179.01c-1.576-.359-1.167-2.59-1.2-3.8-.2-7.591-.358-15.183-.5-22.775q-.562-29.224-.929-58.453-.169-12.792-.3-25.585-.051-5.012-.088-10.022-.014-1.9-.023-3.8c-.007-1.463.043-2.64,1.78-2.661,22.2-.27,44.4-.235,66.6-.385q10.885-.074,21.773-.152C144.971,244.261,144.978,239.461,141.883,239.483Z"/><path class="b" d="M67.551,363.174c18.268-.113,36.538-.016,54.806.04,22.388.069,44.774-.036,67.162-.068,8.9-.013,17.8-.027,26.7.028,3.089.02,3.093-4.78,0-4.8-18.268-.113-36.538-.016-54.805.04-22.388.069-44.775-.036-67.163-.068-8.9-.013-17.8-.027-26.7.028-3.087.02-3.094,4.82,0,4.8Z"/><path class="b" d="M141.883,295.069c-2.759.026-5.519.063-8.278.065a2.437,2.437,0,0,0-2.4,2.4q-.018,4.342-.012,8.684c0,1.7,0,3.4.02,5.1.006.611,0,1.225.025,1.835a2.527,2.527,0,0,0,2.694,2.631c4.96,0,9.921-.034,14.881-.01a4.849,4.849,0,0,0,2.52-.3c1.159-.678,1.192-1.9,1.208-3.075.022-1.592.027-3.184.03-4.776q.012-5.043-.009-10.086a2.437,2.437,0,0,0-2.4-2.4c-2.76,0-5.519-.039-8.279-.065a2.4,2.4,0,1,0,0,4.8c2.76.026,5.519.063,8.279.065l-2.4-2.4c.02,5.285.092,10.579-.039,15.863l.327-1.211h0L150.122,311c-.91-.083-1.849-.026-2.761-.025-1.826,0-3.652.018-5.478.018-1.783,0-3.566-.017-5.349-.018-.954,0-1.937-.062-2.889.025l2.072,1.189h0l.328,1.211c-.132-5.284-.06-10.578-.039-15.863l-2.4,2.4c2.759,0,5.519-.039,8.278-.065a2.4,2.4,0,1,0,0-4.8Z"/></svg>