<?xml version="1.0" encoding="utf-8"?>
<!-- Uploaded to: SVG Repo, www.svgrepo.com, Generator: SVG Repo Mixer Tools -->
<svg width="800px" height="800px" viewBox="0 0 256 256" xmlns="http://www.w3.org/2000/svg">
<defs>
<style>.cls-1{fill:#ffc444;}.cls-2{fill:#ffe76e;}.cls-3{fill:#2fb1ea;}.cls-4{fill:#6dd0fc;}.cls-5{fill:#a4ecff;}.cls-6{fill:#cbecf9;}.cls-7{fill:#ffffff;}.cls-8{fill:#52e355;}.cls-9{fill:#90fc95;}.cls-10{fill:#d4ffd4;}.cls-11{fill:#ffbdbd;}.cls-12{fill:#bbf1ff;}.cls-13{fill:#fff4c5;}</style>
</defs>
<title>business economic finance interprise company bank</title>
<g id="Layer_2" data-name="Layer 2">
<path class="cls-1" d="M128,24,24,104H232Z"/>
<polygon class="cls-2" points="210.94 96.97 128 24 33.14 96.97 210.94 96.97"/>
<path class="cls-3" d="M232,106H24a2,2,0,0,1-1.22-3.58l104-80a2,2,0,0,1,2.44,0l104,80A2,2,0,0,1,232,106ZM29.88,102H226.12L128,26.52Z"/>
<rect class="cls-4" x="24" y="220" width="208" height="12"/>
<rect class="cls-5" x="24" y="220" width="208" height="6"/>
<path class="cls-3" d="M232,234H24a2,2,0,0,1-2-2V220a2,2,0,0,1,2-2H232a2,2,0,0,1,2,2v12A2,2,0,0,1,232,234ZM26,230H230v-8H26Z"/>
<rect class="cls-4" x="44" y="208" width="168" height="12"/>
<rect class="cls-5" x="44" y="208" width="168" height="6"/>
<path class="cls-3" d="M212,222H44a2,2,0,0,1-2-2V208a2,2,0,0,1,2-2H212a2,2,0,0,1,2,2v12A2,2,0,0,1,212,222ZM46,218H210v-8H46Z"/>
<rect class="cls-6" x="67.44" y="116" width="20" height="80"/>
<rect class="cls-7" x="67.44" y="121.95" width="14.06" height="74.05"/>
<path class="cls-3" d="M87.44,198h-20a2,2,0,0,1-2-2V116a2,2,0,0,1,2-2h20a2,2,0,0,1,2,2v80A2,2,0,0,1,87.44,198Zm-18-4h16V118h-16Z"/>
<path class="cls-8" d="M57.44,104h40a0,0,0,0,1,0,0v6a6,6,0,0,1-6,6h-28a6,6,0,0,1-6-6v-6A0,0,0,0,1,57.44,104Z"/>
<path class="cls-9" d="M91.44,116h-28a6,6,0,0,1-6-6h40A6,6,0,0,1,91.44,116Z"/>
<path class="cls-3" d="M91.44,118h-28a8,8,0,0,1-8-8v-6a2,2,0,0,1,2-2h40a2,2,0,0,1,2,2v6A8,8,0,0,1,91.44,118Zm-32-12v4a4,4,0,0,0,4,4h28a4,4,0,0,0,4-4v-4Z"/>
<path class="cls-8" d="M63.44,196h28a6,6,0,0,1,6,6v6a0,0,0,0,1,0,0h-40a0,0,0,0,1,0,0v-6A6,6,0,0,1,63.44,196Z"/>
<path class="cls-9" d="M57.44,202a6,6,0,0,1,6-6h28a6,6,0,0,1,6,6Z"/>
<path class="cls-3" d="M97.44,210h-40a2,2,0,0,1-2-2v-6a8,8,0,0,1,8-8h28a8,8,0,0,1,8,8v6A2,2,0,0,1,97.44,210Zm-38-4h36v-4a4,4,0,0,0-4-4h-28a4,4,0,0,0-4,4Z"/>
<rect class="cls-6" x="168.56" y="116" width="20" height="80"/>
<rect class="cls-7" x="168.56" y="121.95" width="14.06" height="74.05"/>
<path class="cls-3" d="M188.56,198h-20a2,2,0,0,1-2-2V116a2,2,0,0,1,2-2h20a2,2,0,0,1,2,2v80A2,2,0,0,1,188.56,198Zm-18-4h16V118h-16Z"/>
<path class="cls-8" d="M158.56,104h40a0,0,0,0,1,0,0v6a6,6,0,0,1-6,6h-28a6,6,0,0,1-6-6v-6A0,0,0,0,1,158.56,104Z"/>
<path class="cls-9" d="M192.56,116h-28a6,6,0,0,1-6-6h40A6,6,0,0,1,192.56,116Z"/>
<path class="cls-3" d="M192.56,118h-28a8,8,0,0,1-8-8v-6a2,2,0,0,1,2-2h40a2,2,0,0,1,2,2v6A8,8,0,0,1,192.56,118Zm-32-12v4a4,4,0,0,0,4,4h28a4,4,0,0,0,4-4v-4Z"/>
<path class="cls-8" d="M164.56,196h28a6,6,0,0,1,6,6v6a0,0,0,0,1,0,0h-40a0,0,0,0,1,0,0v-6A6,6,0,0,1,164.56,196Z"/>
<path class="cls-9" d="M158.56,202a6,6,0,0,1,6-6h28a6,6,0,0,1,6,6Z"/>
<path class="cls-3" d="M198.56,210h-40a2,2,0,0,1-2-2v-6a8,8,0,0,1,8-8h28a8,8,0,0,1,8,8v6A2,2,0,0,1,198.56,210Zm-38-4h36v-4a4,4,0,0,0-4-4h-28a4,4,0,0,0-4,4Z"/>
<circle class="cls-1" cx="126.18" cy="68.93" r="19.57"/>
<circle class="cls-6" cx="128" cy="70.74" r="17.27"/>
<circle class="cls-7" cx="130.27" cy="73.01" r="15.01"/>
<path class="cls-3" d="M128,90a19.27,19.27,0,1,1,19.27-19.27A19.29,19.29,0,0,1,128,90Zm0-34.54a15.27,15.27,0,1,0,15.27,15.27A15.29,15.29,0,0,0,128,55.47Z"/>
<path class="cls-3" d="M129.84,68.24h-3.67a.65.65,0,1,1,0-1.3H133a2.5,2.5,0,1,0,0-5H130.5V61.3a2.5,2.5,0,1,0-5,0V62a5.65,5.65,0,0,0,.66,11.25h3.67a.65.65,0,1,1,0,1.3H123a2.5,2.5,0,0,0,0,5h2.48v.65a2.5,2.5,0,1,0,5,0V79.5a5.65,5.65,0,0,0-.66-11.25Z"/>
<circle class="cls-10" cx="49" cy="30.12" r="5"/>
<circle class="cls-10" cx="197" cy="47.12" r="4"/>
<circle class="cls-10" cx="26.25" cy="66.87" r="3"/>
<circle class="cls-10" cx="53" cy="115.12" r="2"/>
<circle class="cls-10" cx="53" cy="60.12" r="1"/>
<circle class="cls-11" cx="133" cy="134.12" r="5"/>
<circle class="cls-11" cx="107" cy="174.12" r="4"/>
<circle class="cls-11" cx="214" cy="183.12" r="3"/>
<circle class="cls-11" cx="103" cy="242.12" r="2"/>
<circle class="cls-11" cx="174" cy="47.12" r="1"/>
<circle class="cls-12" cx="228.25" cy="138.87" r="5"/>
<circle class="cls-12" cx="154.25" cy="247.88" r="4"/>
<circle class="cls-12" cx="26" cy="116.12" r="3"/>
<circle class="cls-12" cx="207.25" cy="74.87" r="2"/>
<circle class="cls-12" cx="226.25" cy="205.87" r="1"/>
<circle class="cls-13" cx="201" cy="151.12" r="5"/>
<circle class="cls-13" cx="117" cy="8.12" r="4"/>
<circle class="cls-13" cx="161" cy="148.12" r="3"/>
<circle class="cls-13" cx="109" cy="126.12" r="2"/>
<circle class="cls-13" cx="23.75" cy="155.38" r="1"/>
</g>
</svg>