<?xml version="1.0" ?>

<!-- Uploaded to: SVG Repo, www.svgrepo.com, Generator: SVG Repo Mixer Tools -->
<svg width="32px" height="32px" viewBox="0 0 48 48" id="svg5" version="1.1" xml:space="preserve" xmlns="http://www.w3.org/2000/svg" xmlns:svg="http://www.w3.org/2000/svg">

<defs id="defs2"/>

<g id="layer1" transform="translate(-314.00003,-233)">

<path d="m 318.50027,237.5 h 19.99445 l 9.00552,9 -0.006,29 h -28.99445 z" id="rect19954" style="fill:#f8f8f8;fill-opacity:1;fill-rule:evenodd;stroke:none;stroke-width:2;stroke-linecap:round;stroke-linejoin:round;stroke-miterlimit:4.1"/>

<path d="M 318.50024,245.5293 V 275.5 h 23.83203 a 28.826267,16.861496 50.597708 0 0 -9,-18.18946 28.826267,16.861496 50.597708 0 0 -14.83203,-11.78124 z" id="path25329" style="fill:#e4e9ef;fill-opacity:1;fill-rule:evenodd;stroke:none;stroke-width:2;stroke-linecap:round;stroke-linejoin:round;stroke-miterlimit:4.1;stroke-opacity:1"/>

<path d="m 347.50024,246.5 h -9 v -9 z" id="rect19969" style="fill:#e4e9ef;fill-opacity:1;fill-rule:evenodd;stroke:none;stroke-width:2;stroke-linecap:round;stroke-linejoin:round;stroke-miterlimit:4.1"/>

<path d="m 322.50027,241.5 h 11.99997 v 6 h -11.99997 z" id="rect19974" style="fill:#ff5576;fill-opacity:1;fill-rule:evenodd;stroke-width:2;stroke-linecap:round;stroke-linejoin:round;stroke-miterlimit:4.1"/>

<path d="m 322.31274,258.5 a 1,1 0 0 0 -1,1 1,1 0 0 0 1,1 h 12.48437 a 1,1 0 0 0 1,-1 1,1 0 0 0 -1,-1 z" id="path19976" style="color:#000000;fill:#808b9b;fill-opacity:1;fill-rule:evenodd;stroke-linecap:round;stroke-linejoin:round;stroke-miterlimit:4.1"/>

<path d="m 322.23266,262.5 a 1,1 0 0 0 -1,1 1,1 0 0 0 1,1 h 9.53516 a 1,1 0 0 0 1,-1 1,1 0 0 0 -1,-1 z" id="path19978" style="color:#000000;fill:#808b9b;fill-opacity:1;fill-rule:evenodd;stroke-linecap:round;stroke-linejoin:round;stroke-miterlimit:4.1"/>

<path d="m 322.11157,266.5 a 1,1 0 0 0 -1,1 1,1 0 0 0 1,1 h 9.77734 a 1,1 0 0 0 1,-1 1,1 0 0 0 -1,-1 z" id="path19980" style="color:#000000;fill:#808b9b;fill-opacity:1;fill-rule:evenodd;stroke-linecap:round;stroke-linejoin:round;stroke-miterlimit:4.1"/>

<path d="m 322.33422,270.5 a 1,1 0 0 0 -1,1 1,1 0 0 0 1,1 h 11.16602 a 1,1 0 0 0 1,-1 1,1 0 0 0 -1,-1 z" id="path19982" style="color:#000000;fill:#808b9b;fill-opacity:1;fill-rule:evenodd;stroke-linecap:round;stroke-linejoin:round;stroke-miterlimit:4.1;-inkscape-stroke:none"/>

<path d="m 322.61157,250.5 a 1,1 0 0 0 -1,1 1,1 0 0 0 1,1 h 17.77734 a 1,1 0 0 0 1,-1 1,1 0 0 0 -1,-1 z" id="path20716" style="color:#000000;fill:#808b9b;fill-opacity:1;fill-rule:evenodd;stroke-linecap:round;stroke-linejoin:round;stroke-miterlimit:4.1"/>

<path d="m 322.50024,254.5 a 1,1 0 0 0 -1,1 1,1 0 0 0 1,1 h 13 a 1,1 0 0 0 1,-1 1,1 0 0 0 -1,-1 z" id="path20718" style="color:#000000;fill:#808b9b;fill-opacity:1;fill-rule:evenodd;stroke-linecap:round;stroke-linejoin:round;stroke-miterlimit:4.1"/>

<path d="m 357.50024,266.49998 c 0,5.52285 -4.47716,10.00002 -10.00002,10.00002 -5.52288,0 -10.00004,-4.47717 -10.00004,-10.00002 0,-5.52286 4.47716,-10.00004 10.00004,-10.00004 5.52286,0 10.00002,4.47718 10.00002,10.00004 z" id="path19956" style="fill:#f2a50c;fill-opacity:1;fill-rule:evenodd;stroke:none;stroke-width:2;stroke-linecap:round;stroke-linejoin:round;stroke-miterlimit:4.1;stroke-opacity:1"/>

<path d="m 347.50024,256.5 c -5.52287,0 -10,4.47715 -10,10 0,4.01074 2.3614,7.46892 5.76953,9.0625 5.1103,-1.59587 8.81836,-6.36785 8.81836,-12.00391 0,-2.46468 -0.7119,-4.76079 -1.9375,-6.70117 C 349.30645,256.62595 348.4179,256.5 347.50024,256.5 Z" id="path24291" style="fill:#f7c63d;fill-opacity:1;fill-rule:evenodd;stroke:none;stroke-width:2;stroke-linecap:round;stroke-linejoin:round;stroke-miterlimit:4.1;stroke-opacity:1"/>

<path d="m 347.50024,258.82031 a 1.0055461,0.99447156 0 0 0 -1.00586,0.99609 v 1.28516 c -1.37449,0.41296 -2.40234,1.64607 -2.40234,3.1211 0,1.81802 1.56087,3.27148 3.4082,3.27148 0.80605,0 1.39648,0.58718 1.39648,1.2832 0,0.69605 -0.59044,1.2793 -1.39648,1.2793 -0.80605,0 -1.39648,-0.58325 -1.39648,-1.2793 a 1.0055461,0.99447156 0 0 0 -1.00586,-0.99609 1.0055461,0.99447156 0 0 0 -1.00586,0.99609 c 0,1.47503 1.02785,2.70815 2.40234,3.1211 v 1.28515 a 1.0055461,0.99447156 0 0 0 1.00586,0.9961 1.0055461,0.99447156 0 0 0 1.00391,-0.9961 v -1.28515 c 1.37488,-0.41243 2.40234,-1.64543 2.40234,-3.1211 0,-1.81801 -1.55892,-3.27148 -3.40625,-3.27148 -0.80606,0 -1.39648,-0.58715 -1.39648,-1.2832 0,-0.69603 0.59042,-1.2793 1.39648,-1.2793 0.80606,0 1.39648,0.58327 1.39648,1.2793 a 1.0055461,0.99447156 0 0 0 1.00586,0.99609 1.0055461,0.99447156 0 0 0 1.00391,-0.99609 c 0,-1.47566 -1.02746,-2.70868 -2.40234,-3.1211 v -1.28516 a 1.0055461,0.99447156 0 0 0 -1.00391,-0.99609 z" id="path24192" style="color:#000000;fill:#808b9b;fill-opacity:1;fill-rule:evenodd;stroke:none;stroke-width:0.999996;stroke-linecap:round;stroke-linejoin:round;stroke-miterlimit:4.1;stroke-opacity:1"/>

<path d="m 347.50021,261.94787 v -2.13194" id="path24184" style="color:#000000;fill:#ebcfb2;fill-opacity:1;fill-rule:evenodd;stroke:none;stroke-width:1.99999;stroke-linecap:round;stroke-linejoin:round;stroke-miterlimit:4.1;stroke-opacity:1"/>

<path d="m 347.50021,273.18399 v -2.13192" id="path24196" style="color:#000000;fill:#ebcfb2;fill-opacity:1;fill-rule:evenodd;stroke:none;stroke-width:1.99999;stroke-linecap:round;stroke-linejoin:round;stroke-miterlimit:4.1;stroke-opacity:1;-inkscape-stroke:none"/>

</g>

</svg>