<?xml version="1.0" ?>

<!-- Uploaded to: SVG Repo, www.svgrepo.com, Generator: SVG Repo Mixer Tools -->
<svg width="32px" height="32px" viewBox="0 0 64 64" id="svg5" version="1.1" xml:space="preserve" xmlns="http://www.w3.org/2000/svg" xmlns:svg="http://www.w3.org/2000/svg">

<defs id="defs2"/>

<g id="layer1" transform="translate(0,-96)">

<path d="m 10,105 h 49 v 6 H 10 Z" id="path27732" style="fill:#3e4f59;fill-opacity:1;fill-rule:evenodd;stroke-width:2;stroke-linecap:round;stroke-linejoin:round;stroke-miterlimit:4.1"/>

<path d="m 10,111 h 49 v 40 H 10 Z" id="path27734" style="fill:#e8edee;fill-opacity:1;fill-rule:evenodd;stroke-width:2.00001;stroke-linecap:round;stroke-linejoin:round;stroke-miterlimit:4.1"/>

<path d="m 10,111 v 40 h 29.769532 a 28.484051,41.392605 35.599482 0 0 18.625,-40 z" id="path27736" style="fill:#e8edee;fill-opacity:1;fill-rule:evenodd;stroke:none;stroke-width:2.00002;stroke-linecap:round;stroke-linejoin:round;stroke-miterlimit:4.1"/>

<path d="m 12,104 c -1.645006,0 -3,1.355 -3,3 v 40 c 0,0.55229 0.4477153,1 1,1 0.552285,0 1,-0.44771 1,-1 v -40 c 0,-0.56413 0.435873,-1 1,-1 h 45 c 0.564127,0 1,0.43587 1,1 v 3 H 16 c -0.552285,0 -1,0.44772 -1,1 0,0.55229 0.447715,1 1,1 h 42 v 37 c 0,0.56413 -0.435873,1 -1,1 H 8 c -0.5522847,0 -1,0.44772 -1,1 0,0.55229 0.4477153,1 1,1 h 49 c 1.645006,0 3,-1.35499 3,-3 0,-14 0,-28 0,-42 0,-1.645 -1.354994,-3 -3,-3 z" id="path27738" style="color:#000000;fill:#000000;fill-rule:evenodd;stroke-linecap:round;stroke-linejoin:round;stroke-miterlimit:4.1"/>

<path d="m 55,107 c -0.552285,0 -1,0.44772 -1,1 0,0.55229 0.447715,1 1,1 0.552285,0 1,-0.44771 1,-1 0,-0.55228 -0.447715,-1 -1,-1 z" id="path27740" style="color:#000000;fill:#ed7161;fill-opacity:1;fill-rule:evenodd;stroke-linecap:round;stroke-linejoin:round;stroke-miterlimit:4.1;-inkscape-stroke:none"/>

<path d="m 51,107 c -0.552285,0 -1,0.44772 -1,1 0,0.55229 0.447715,1 1,1 0.552285,0 1,-0.44771 1,-1 0,-0.55228 -0.447715,-1 -1,-1 z" id="path27742" style="color:#000000;fill:#ecba16;fill-opacity:1;fill-rule:evenodd;stroke-linecap:round;stroke-linejoin:round;stroke-miterlimit:4.1;-inkscape-stroke:none"/>

<path d="m 47,107 c -0.552285,0 -1,0.44772 -1,1 0,0.55229 0.447715,1 1,1 0.552285,0 1,-0.44771 1,-1 0,-0.55228 -0.447715,-1 -1,-1 z" id="path27744" style="color:#000000;fill:#42b05c;fill-opacity:1;fill-rule:evenodd;stroke-linecap:round;stroke-linejoin:round;stroke-miterlimit:4.1;-inkscape-stroke:none"/>

<path d="m 5,150 a 1,1 0 0 0 -1,1 1,1 0 0 0 1,1 1,1 0 0 0 1,-1 1,1 0 0 0 -1,-1 z" id="path27746" style="color:#000000;fill:#000000;fill-rule:evenodd;stroke-linecap:round;stroke-linejoin:round;stroke-miterlimit:4.1;-inkscape-stroke:none"/>

<path d="m 13,110 c -0.552285,0 -1,0.44772 -1,1 0,0.55229 0.447715,1 1,1 0.552285,0 1,-0.44771 1,-1 0,-0.55228 -0.447715,-1 -1,-1 z" id="path27748" style="color:#000000;fill:#000000;fill-rule:evenodd;stroke-linecap:round;stroke-linejoin:round;stroke-miterlimit:4.1;-inkscape-stroke:none"/>

<path d="m 23.000016,125 h 18.000001 v 17 H 23.000016 a 1,1 0 0 1 -1,-1 v -15 a 1,1 0 0 1 1,-1 z" id="rect25148" style="fill:#fe73c5;fill-opacity:1;fill-rule:evenodd;stroke:none;stroke-width:2;stroke-linecap:round;stroke-linejoin:round;stroke-miterlimit:4.1"/>

<path d="m 23,124 c -1.09273,0 -2,0.90728 -2,2 v 2 a 1,1 0 0 0 1,1 1,1 0 0 0 1,-1 v -2 h 17 v 15 H 23 v -9 a 1,1 0 0 0 -1,-1 1,1 0 0 0 -1,1 v 9 c 0,1.09272 0.90727,2 2,2 h 18 a 1.0001,1.0001 0 0 0 1,-1 v -17 a 1.0001,1.0001 0 0 0 -1,-1 z" id="path8657" style="color:#000000;fill:#000000;fill-rule:evenodd;stroke-linecap:round;stroke-linejoin:round;stroke-miterlimit:4.1"/>

<path d="m 30.000015,120 h 11 c 0.552285,0 1,0.44772 1,1 v 11 h -13 v -11 c 0,-0.55228 0.447715,-1 1,-1 z" id="rect27330" style="fill:#0075d3;fill-opacity:1;fill-rule:evenodd;stroke:none;stroke-width:2;stroke-linecap:round;stroke-linejoin:round;stroke-miterlimit:4.1"/>

<path d="m 30,120 c -0.552284,0 -1,0.44772 -1,1 v 11 h 9.025391 A 8.9510326,9.8163624 0 0 0 39.9375,125.97266 8.9510326,9.8163624 0 0 0 38.087891,120 Z" id="path18344" style="fill:#0588e2;fill-opacity:1;fill-rule:evenodd;stroke:none;stroke-width:2.00001;stroke-linecap:round;stroke-linejoin:round;stroke-miterlimit:4.1"/>

<g id="path27332" transform="translate(3.8e-7,-4)">

<path d="m 33.277344,126 a 1,1 0 0 0 -1,1 1,1 0 0 0 1,1 h 5.445312 a 1,1 0 0 0 1,-1 1,1 0 0 0 -1,-1 z" id="path8611" style="color:#000000;fill:#000000;fill-rule:evenodd;stroke-linecap:round;stroke-linejoin:round;stroke-miterlimit:4.1"/>

</g>

<path d="m 30,119 c -1.09273,0 -2,0.90728 -2,2 v 11 c 5.5e-5,0.55226 0.447738,0.99994 1,1 h 13 c 0.552262,-6e-5 0.999945,-0.44774 1,-1 v -4.99023 c 0,-0.55228 -0.447715,-1 -1,-1 -0.552285,0 -1,0.44772 -1,1 V 131 H 30 v -10 h 11 v 1.96289 c 0,0.55228 0.447715,1 1,1 0.552285,0 1,-0.44772 1,-1 V 121 c 0,-1.09272 -0.90727,-2 -2,-2 z" id="path8653" style="color:#000000;fill:#000000;fill-rule:evenodd;stroke-linecap:round;stroke-linejoin:round;stroke-miterlimit:4.1;-inkscape-stroke:none"/>

<g id="path27334" transform="translate(3.8e-7,-4)">

<path d="m 33.277344,129 a 1,1 0 0 0 -1,1 1,1 0 0 0 1,1 h 5.445312 a 1,1 0 0 0 1,-1 1,1 0 0 0 -1,-1 z" id="path8617" style="color:#000000;fill:#000000;fill-rule:evenodd;stroke-linecap:round;stroke-linejoin:round;stroke-miterlimit:4.1;-inkscape-stroke:none"/>

</g>

<path d="M 28.00003,129 H 46 a 0.6868094,0.6868094 0 0 1 0.641031,0.93336 l -4.282032,11.13328 A 1.4560517,1.4560517 0 0 1 41,142 H 23.00003 a 0.6868094,0.6868094 0 0 1 -0.641031,-0.93336 l 4.282032,-11.13328 A 1.4560517,1.4560517 0 0 1 28.00003,129 Z" id="rect25146" style="fill:#fe93d3;fill-opacity:1;fill-rule:evenodd;stroke:none;stroke-width:2;stroke-linecap:round;stroke-linejoin:round;stroke-miterlimit:4.1"/>

<path d="m 28,128 c -1.013046,0 -1.929306,0.62869 -2.292969,1.57422 l -4.28125,11.13281 C 21.012686,141.78107 21.849256,143 23,143 h 18 c 1.013046,0 1.929306,-0.62869 2.292969,-1.57422 l 1.472656,-3.83008 a 1,1 0 0 0 -0.574219,-1.29297 1,1 0 0 0 -1.292969,0.57422 l -1.472656,3.83008 C 41.356895,140.88614 41.191898,141 41,141 H 23.457031 l 4.117188,-10.70703 C 27.643105,130.11386 27.808102,130 28,130 h 17.542969 l -1.257813,3.27344 a 1,1 0 0 0 0.574219,1.29297 1,1 0 0 0 1.292969,-0.57422 l 1.421875,-3.69922 C 47.987314,129.21893 47.150744,128 46,128 Z" id="path8655" style="color:#000000;fill:#000000;fill-rule:evenodd;stroke-linecap:round;stroke-linejoin:round;stroke-miterlimit:4.1"/>

</g>

</svg>