<?xml version="1.0" ?>

<!-- Uploaded to: SVG Repo, www.svgrepo.com, Generator: SVG Repo Mixer Tools -->
<svg width="32px" height="32px" viewBox="0 0 24 24" xmlns="http://www.w3.org/2000/svg">

<defs>

<style>.cls-1{fill:#eae2f9;}.cls-2{fill:#a2a5de;}.cls-3{fill:#c0c3ee;}.cls-4{fill:#9293a5;}.cls-4,.cls-5{fill-rule:evenodd;}.cls-5{fill:#f1734d;}</style>

</defs>

<g id="Invoice">

<path class="cls-1" d="M5.18,2a.92.92,0,0,0-.91.91V20.1A1.9,1.9,0,0,0,6.17,22H18.38a1,1,0,0,1-1-1V2.91A.91.91,0,0,0,16.49,2Z"/>

<path class="cls-2" d="M18.82,12.59a.91.91,0,0,1,.91.91v7.55a.94.94,0,0,1-.95.95h-.44a.94.94,0,0,1-.94-.95V12.59Z"/>

<path class="cls-3" d="M14.61,2V21a1,1,0,0,0,1,1h2.79a1,1,0,0,1-1-1V2.91A.91.91,0,0,0,16.49,2Z"/>

<path class="cls-4" d="M6.7,19.78H8.61a.5.5,0,0,0,.5-.5.51.51,0,0,0-.5-.5H6.7a.5.5,0,0,0-.5.5A.5.5,0,0,0,6.7,19.78Z"/>

<path class="cls-4" d="M10.64,19.78H15a.5.5,0,0,0,.5-.5.5.5,0,0,0-.5-.5H10.64a.5.5,0,0,0-.5.5A.5.5,0,0,0,10.64,19.78Z"/>

<path class="cls-4" d="M15,16.89H13.06a.5.5,0,0,0-.5.5.5.5,0,0,0,.5.5H15a.5.5,0,0,0,.5-.5A.5.5,0,0,0,15,16.89Z"/>

<path class="cls-4" d="M11,16.89H6.7a.5.5,0,0,0-.5.5.5.5,0,0,0,.5.5H11a.5.5,0,0,0,.5-.5A.5.5,0,0,0,11,16.89Z"/>

<path class="cls-4" d="M6.7,16H8.61a.5.5,0,0,0,.5-.5.51.51,0,0,0-.5-.5H6.7a.5.5,0,0,0-.5.5A.5.5,0,0,0,6.7,16Z"/>

<path class="cls-4" d="M10.64,16H15a.5.5,0,0,0,.5-.5A.5.5,0,0,0,15,15H10.64a.5.5,0,0,0-.5.5A.5.5,0,0,0,10.64,16Z"/>

<path class="cls-4" d="M15,13.1H13.06a.5.5,0,0,0,0,1H15a.5.5,0,0,0,0-1Z"/>

<path class="cls-4" d="M11,13.1H6.7a.5.5,0,0,0,0,1H11a.5.5,0,0,0,0-1Z"/>

<path class="cls-4" d="M6.7,12.21H8.61a.51.51,0,0,0,.5-.5.5.5,0,0,0-.5-.5H6.7a.5.5,0,0,0-.5.5A.5.5,0,0,0,6.7,12.21Z"/>

<path class="cls-4" d="M10.64,12.21H15a.5.5,0,0,0,.5-.5.5.5,0,0,0-.5-.5H10.64a.5.5,0,0,0-.5.5A.5.5,0,0,0,10.64,12.21Z"/>

<path class="cls-5" d="M10.33,4.39V4.21a.5.5,0,0,1,.5-.5.5.5,0,0,1,.5.5v.18a1.35,1.35,0,0,1,.47.3,1.6,1.6,0,0,1,.29.44.51.51,0,0,1-.26.66.52.52,0,0,1-.66-.27.42.42,0,0,0-.08-.12.35.35,0,0,0-.24-.1h0a.36.36,0,0,0,0,.72,1.37,1.37,0,0,1,.5,2.64v.18a.5.5,0,0,1-.5.5.5.5,0,0,1-.5-.5V8.66a1.44,1.44,0,0,1-.46-.31,1.13,1.13,0,0,1-.29-.43.5.5,0,0,1,.27-.66.51.51,0,0,1,.65.27.36.36,0,0,0,.08.12.36.36,0,0,0,.25.1.36.36,0,0,0,.37-.36A.37.37,0,0,0,10.83,7a1.36,1.36,0,0,1-.5-2.63Z"/>

</g>

</svg>