<?xml version="1.0" ?>

<!-- Uploaded to: SVG Repo, www.svgrepo.com, Generator: SVG Repo Mixer Tools -->
<svg width="32px" height="32px" viewBox="0 0 64 64" id="svg5" version="1.1" xml:space="preserve" xmlns="http://www.w3.org/2000/svg" xmlns:svg="http://www.w3.org/2000/svg">

<defs id="defs2"/>

<g id="layer1" transform="translate(-96,-672)">

<path d="m 106,681 h 49 v 6 h -49 z" id="path61186" style="fill:#3e4f59;fill-opacity:1;fill-rule:evenodd;stroke-width:2;stroke-linecap:round;stroke-linejoin:round;stroke-miterlimit:4.1"/>

<path d="m 106,687 h 49 v 40 h -49 z" id="path61188" style="fill:#e8edee;fill-opacity:1;fill-rule:evenodd;stroke-width:2.00001;stroke-linecap:round;stroke-linejoin:round;stroke-miterlimit:4.1"/>

<path d="m 106,687 v 40 h 29.76953 a 28.484051,41.392605 35.599482 0 0 18.625,-40 z" id="path61190" style="fill:#e8edee;fill-opacity:1;fill-rule:evenodd;stroke:none;stroke-width:2.00002;stroke-linecap:round;stroke-linejoin:round;stroke-miterlimit:4.1"/>

<path d="m 108,680 c -1.64501,0 -3,1.355 -3,3 v 40 c 0,0.55229 0.44772,1 1,1 0.55229,0 1,-0.44771 1,-1 v -40 c 0,-0.56413 0.43587,-1 1,-1 h 45 c 0.56413,0 1,0.43587 1,1 v 3 h -42 c -0.55228,0 -1,0.44772 -1,1 0,0.55229 0.44772,1 1,1 h 42 v 37 c 0,0.56413 -0.43587,1 -1,1 h -49 c -0.55228,0 -1,0.44772 -1,1 0,0.55229 0.44772,1 1,1 h 49 c 1.64501,0 3,-1.35499 3,-3 0,-14 0,-28 0,-42 0,-1.645 -1.35499,-3 -3,-3 z" id="path61192" style="color:#000000;fill:#000000;fill-rule:evenodd;stroke-linecap:round;stroke-linejoin:round;stroke-miterlimit:4.1"/>

<path d="m 151,683 c -0.55228,0 -1,0.44772 -1,1 0,0.55229 0.44772,1 1,1 0.55229,0 1,-0.44771 1,-1 0,-0.55228 -0.44771,-1 -1,-1 z" id="path61194" style="color:#000000;fill:#ed7161;fill-opacity:1;fill-rule:evenodd;stroke-linecap:round;stroke-linejoin:round;stroke-miterlimit:4.1;-inkscape-stroke:none"/>

<path d="m 147,683 c -0.55228,0 -1,0.44772 -1,1 0,0.55229 0.44772,1 1,1 0.55229,0 1,-0.44771 1,-1 0,-0.55228 -0.44771,-1 -1,-1 z" id="path61196" style="color:#000000;fill:#ecba16;fill-opacity:1;fill-rule:evenodd;stroke-linecap:round;stroke-linejoin:round;stroke-miterlimit:4.1;-inkscape-stroke:none"/>

<path d="m 143,683 c -0.55228,0 -1,0.44772 -1,1 0,0.55229 0.44772,1 1,1 0.55229,0 1,-0.44771 1,-1 0,-0.55228 -0.44771,-1 -1,-1 z" id="path61198" style="color:#000000;fill:#42b05c;fill-opacity:1;fill-rule:evenodd;stroke-linecap:round;stroke-linejoin:round;stroke-miterlimit:4.1;-inkscape-stroke:none"/>

<path d="m 101,726 a 1,1 0 0 0 -1,1 1,1 0 0 0 1,1 1,1 0 0 0 1,-1 1,1 0 0 0 -1,-1 z" id="path61200" style="color:#000000;fill:#000000;fill-rule:evenodd;stroke-linecap:round;stroke-linejoin:round;stroke-miterlimit:4.1;-inkscape-stroke:none"/>

<path d="m 109,686 c -0.55228,0 -1,0.44772 -1,1 0,0.55229 0.44772,1 1,1 0.55229,0 1,-0.44771 1,-1 0,-0.55228 -0.44771,-1 -1,-1 z" id="path61202" style="color:#000000;fill:#000000;fill-rule:evenodd;stroke-linecap:round;stroke-linejoin:round;stroke-miterlimit:4.1;-inkscape-stroke:none"/>

<path d="m 115,693 h 31 c 1.662,0 3,1.338 3,3 0,1.662 -1.338,3 -3,3 h -31 c -1.662,0 -3,-1.338 -3,-3 0,-1.662 1.338,-3 3,-3 z" id="rect15968" style="fill:#fe73c5;fill-opacity:1;fill-rule:evenodd;stroke:none;stroke-width:2;stroke-linecap:round;stroke-linejoin:round;stroke-miterlimit:4.1"/>

<path d="m 115,693 c -1.662,0 -3,1.338 -3,3 h 30.5 c 1.662,0 3,-1.338 3,-3 z" id="path58240" style="fill:#fe93d3;fill-opacity:1;fill-rule:evenodd;stroke:none;stroke-width:2;stroke-linecap:round;stroke-linejoin:round;stroke-miterlimit:4.1"/>

<path d="m 116,695 c -0.55228,0 -1,0.44771 -1,1 0,0.55228 0.44772,1 1,1 0.55229,0 1,-0.44772 1,-1 0,-0.55229 -0.44771,-1 -1,-1 z" id="path15953" style="color:#000000;fill:#000000;fill-rule:evenodd;stroke-linecap:round;stroke-linejoin:round;stroke-miterlimit:4.1;-inkscape-stroke:none"/>

<path d="m 120,695 c -0.55228,0 -1,0.44771 -1,1 0,0.55228 0.44772,1 1,1 0.55229,0 1,-0.44772 1,-1 0,-0.55229 -0.44771,-1 -1,-1 z" id="path15955" style="color:#000000;fill:#000000;fill-rule:evenodd;stroke-linecap:round;stroke-linejoin:round;stroke-miterlimit:4.1;-inkscape-stroke:none"/>

<path d="m 124,695 c -0.55228,0 -1,0.44771 -1,1 0,0.55228 0.44772,1 1,1 0.55229,0 1,-0.44772 1,-1 0,-0.55229 -0.44771,-1 -1,-1 z" id="path15970" style="color:#000000;fill:#000000;fill-rule:evenodd;stroke-linecap:round;stroke-linejoin:round;stroke-miterlimit:4.1;-inkscape-stroke:none"/>

<g id="path15972">

<path d="m 113,704 a 1,1 0 0 0 -1,1 1,1 0 0 0 1,1 h 23 a 1,1 0 0 0 1,-1 1,1 0 0 0 -1,-1 z m 27,0 a 1,1 0 0 0 -1,1 1,1 0 0 0 1,1 h 8 a 1,1 0 0 0 1,-1 1,1 0 0 0 -1,-1 z" id="path24645" style="color:#000000;fill:#000000;fill-rule:evenodd;stroke-linecap:round;stroke-linejoin:round;stroke-miterlimit:4.1"/>

</g>

<path d="m 113,709 c -0.55228,0 -1,0.44771 -1,1 0,0.55228 0.44772,1 1,1 0.55229,0 1,-0.44772 1,-1 0,-0.55229 -0.44771,-1 -1,-1 z" id="path15976" style="color:#000000;fill:#000000;fill-rule:evenodd;stroke-linecap:round;stroke-linejoin:round;stroke-miterlimit:4.1;-inkscape-stroke:none"/>

<g id="path15978">

<path d="m 113,714 a 1,1 0 0 0 -1,1 1,1 0 0 0 1,1 h 23.07031 a 1,1 0 0 0 1,-1 1,1 0 0 0 -1,-1 z m 27,0 a 1,1 0 0 0 -1,1 1,1 0 0 0 1,1 h 8 a 1,1 0 0 0 1,-1 1,1 0 0 0 -1,-1 z" id="path24657" style="color:#000000;fill:#000000;fill-rule:evenodd;stroke-linecap:round;stroke-linejoin:round;stroke-miterlimit:4.1"/>

</g>

<g id="path15980">

<path d="m 117,719 a 1,1 0 0 0 -1,1 1,1 0 0 0 1,1 h 31 a 1,1 0 0 0 1,-1 1,1 0 0 0 -1,-1 z" id="path24663" style="color:#000000;fill:#000000;fill-rule:evenodd;stroke-linecap:round;stroke-linejoin:round;stroke-miterlimit:4.1;-inkscape-stroke:none"/>

</g>

<path d="m 113,719 c -0.55228,0 -1,0.44771 -1,1 0,0.55228 0.44772,1 1,1 0.55229,0 1,-0.44772 1,-1 0,-0.55229 -0.44771,-1 -1,-1 z" id="path15982" style="color:#000000;fill:#000000;fill-rule:evenodd;stroke-linecap:round;stroke-linejoin:round;stroke-miterlimit:4.1;-inkscape-stroke:none"/>

<path d="m 115,692 c -2.1987,0 -4,1.8013 -4,4 0,2.1987 1.8013,4 4,4 a 1,1 0 0 0 1,-1 1,1 0 0 0 -1,-1 c -1.1253,0 -2,-0.8747 -2,-2 0,-1.1253 0.8747,-2 2,-2 h 27 a 1,1 0 0 0 1,-1 1,1 0 0 0 -1,-1 z m 31,0 a 1,1 0 0 0 -1,1 1,1 0 0 0 1,1 c 1.1253,0 2,0.8747 2,2 0,1.1253 -0.8747,2 -2,2 h -27 a 1,1 0 0 0 -1,1 1,1 0 0 0 1,1 h 27 c 2.1987,0 4,-1.8013 4,-4 0,-2.1987 -1.8013,-4 -4,-4 z" id="path24635" style="color:#000000;fill:#000000;fill-rule:evenodd;stroke-linecap:round;stroke-linejoin:round;stroke-miterlimit:4.1;-inkscape-stroke:none"/>

<g id="g24757" transform="translate(0,-10)">

<path d="m 117,719 a 1,1 0 0 0 -1,1 1,1 0 0 0 1,1 h 31 a 1,1 0 0 0 1,-1 1,1 0 0 0 -1,-1 z" id="path24755" style="color:#000000;fill:#000000;fill-rule:evenodd;stroke-linecap:round;stroke-linejoin:round;stroke-miterlimit:4.1;-inkscape-stroke:none"/>

</g>

</g>

</svg>