<?xml version="1.0" ?>

<!-- Uploaded to: SVG Repo, www.svgrepo.com, Generator: SVG Repo Mixer Tools -->
<svg width="32px" height="32px" viewBox="0 0 64 64" id="svg5" version="1.1" xml:space="preserve" xmlns="http://www.w3.org/2000/svg" xmlns:svg="http://www.w3.org/2000/svg">

<defs id="defs2"/>

<g id="layer1" transform="translate(-192,-96)">

<path d="m 202,105 h 49 v 6 h -49 z" id="path27768" style="fill:#3e4f59;fill-opacity:1;fill-rule:evenodd;stroke-width:2;stroke-linecap:round;stroke-linejoin:round;stroke-miterlimit:4.1"/>

<path d="m 202,111 h 49 v 40 h -49 z" id="path27770" style="fill:#e8edee;fill-opacity:1;fill-rule:evenodd;stroke-width:2.00001;stroke-linecap:round;stroke-linejoin:round;stroke-miterlimit:4.1"/>

<path d="m 202,111 v 40 h 29.76954 a 28.484051,41.392605 35.599482 0 0 18.625,-40 z" id="path27772" style="fill:#e8edee;fill-opacity:1;fill-rule:evenodd;stroke:none;stroke-width:2.00002;stroke-linecap:round;stroke-linejoin:round;stroke-miterlimit:4.1"/>

<path d="m 204,104 c -1.64501,0 -3,1.355 -3,3 v 40 c 0,0.55229 0.44772,1 1,1 0.55229,0 1,-0.44771 1,-1 v -40 c 0,-0.56413 0.43587,-1 1,-1 h 45 c 0.56414,0 1,0.43587 1,1 v 3 h -42 c -0.55228,0 -1,0.44772 -1,1 0,0.55229 0.44772,1 1,1 h 42 v 37 c 0,0.56413 -0.43586,1 -1,1 h -49 c -0.55228,0 -1,0.44772 -1,1 0,0.55229 0.44772,1 1,1 h 49 c 1.64501,0 3,-1.35499 3,-3 0,-14 0,-28 0,-42 0,-1.645 -1.35499,-3 -3,-3 z" id="path27774" style="color:#000000;fill:#000000;fill-rule:evenodd;stroke-linecap:round;stroke-linejoin:round;stroke-miterlimit:4.1"/>

<path d="m 247,107 c -0.55228,0 -1,0.44772 -1,1 0,0.55229 0.44772,1 1,1 0.55229,0 1,-0.44771 1,-1 0,-0.55228 -0.44771,-1 -1,-1 z" id="path27776" style="color:#000000;fill:#ed7161;fill-opacity:1;fill-rule:evenodd;stroke-linecap:round;stroke-linejoin:round;stroke-miterlimit:4.1;-inkscape-stroke:none"/>

<path d="m 243,107 c -0.55228,0 -1,0.44772 -1,1 0,0.55229 0.44772,1 1,1 0.55229,0 1,-0.44771 1,-1 0,-0.55228 -0.44771,-1 -1,-1 z" id="path27778" style="color:#000000;fill:#ecba16;fill-opacity:1;fill-rule:evenodd;stroke-linecap:round;stroke-linejoin:round;stroke-miterlimit:4.1;-inkscape-stroke:none"/>

<path d="m 239,107 c -0.55228,0 -1,0.44772 -1,1 0,0.55229 0.44772,1 1,1 0.55229,0 1,-0.44771 1,-1 0,-0.55228 -0.44771,-1 -1,-1 z" id="path27780" style="color:#000000;fill:#42b05c;fill-opacity:1;fill-rule:evenodd;stroke-linecap:round;stroke-linejoin:round;stroke-miterlimit:4.1;-inkscape-stroke:none"/>

<path d="m 197,150 a 1,1 0 0 0 -1,1 1,1 0 0 0 1,1 1,1 0 0 0 1,-1 1,1 0 0 0 -1,-1 z" id="path27782" style="color:#000000;fill:#000000;fill-rule:evenodd;stroke-linecap:round;stroke-linejoin:round;stroke-miterlimit:4.1;-inkscape-stroke:none"/>

<path d="m 205,110 c -0.55228,0 -1,0.44772 -1,1 0,0.55229 0.44772,1 1,1 0.55229,0 1,-0.44771 1,-1 0,-0.55228 -0.44771,-1 -1,-1 z" id="path27784" style="color:#000000;fill:#000000;fill-rule:evenodd;stroke-linecap:round;stroke-linejoin:round;stroke-miterlimit:4.1;-inkscape-stroke:none"/>

<path d="m 224.2498,117.03157 -0.5401,3.77597 a 10.501212,10.488034 0 0 0 -5.42495,3.12047 l -3.53459,-1.41855 -1.75019,3.02827 2.99106,2.34549 a 10.501212,10.488034 0 0 0 -0.49224,3.1324 10.501212,10.488034 0 0 0 0.49224,3.13241 l -2.99106,2.34548 1.75019,3.02827 3.53459,-1.41854 a 10.501212,10.488034 0 0 0 5.42495,3.12047 l 0.5401,3.77596 h 3.5004 l 0.5401,-3.77596 a 10.501212,10.488034 0 0 0 5.42495,-3.12047 l 3.53458,1.41854 1.7502,-3.02827 -2.99107,-2.34548 a 10.501212,10.488034 0 0 0 0.49225,-3.13241 10.501212,10.488034 0 0 0 -0.4837,-3.13925 l 2.98252,-2.33864 -1.7502,-3.02827 -3.51921,1.41172 a 10.501212,10.488034 0 0 0 -5.44374,-3.13924 l -0.53668,-3.75037 z" id="path3689" style="fill:#fe73c5;fill-opacity:1;fill-rule:evenodd;stroke:none;stroke-width:2;stroke-linecap:round;stroke-linejoin:round;stroke-miterlimit:4.1"/>

<path d="m 214.75,122.50976 -1.75,3.02734 2.99023,2.34571 a 10.501212,10.488034 0 0 0 -0.49218,3.13281 10.501212,10.488034 0 0 0 0.49218,3.13281 L 213,136.49414 l 1.75,3.02734 3.53516,-1.41797 a 10.501212,10.488034 0 0 0 5.42382,3.12109 L 224.25,145 h 3.5 l 0.54102,-3.7754 a 10.501212,10.488034 0 0 0 2.125,-0.7539 18.509892,17.787067 0 0 0 0.13671,-1.85742 18.509892,17.787067 0 0 0 -10.625,-16.0918 10.501212,10.488034 0 0 0 -1.64257,1.40625 z" id="ellipse20514" style="fill:#fe93d3;fill-opacity:1;fill-rule:evenodd;stroke:none;stroke-width:2;stroke-linecap:round;stroke-linejoin:round;stroke-miterlimit:4.1"/>

<path d="m 224.25,116.03125 a 1.0001,1.0001 0 0 0 -0.99023,0.85937 l -0.45899,3.20898 c -1.75702,0.51394 -3.34503,1.42917 -4.67187,2.68946 l -3.00586,-1.20703 a 1.0001,1.0001 0 0 0 -1.23828,0.42773 l -1.75,3.02734 a 1.0001,1.0001 0 0 0 0.24804,1.28711 l 2.53906,1.99219 c -0.21925,0.88621 -0.42022,1.78067 -0.42382,2.69531 a 1.0001,1.0001 0 0 0 0,0.008 c 0.003,0.91483 0.20452,1.80913 0.42382,2.69531 l -2.53906,1.99219 a 1.0001,1.0001 0 0 0 -0.24804,1.28711 l 1.75,3.02734 a 1.0001,1.0001 0 0 0 1.23828,0.42773 l 3.5332,-1.41797 a 1,1 0 0 0 0.55664,-1.30078 1,1 0 0 0 -1.30078,-0.55468 l -2.73047,1.0957 -0.88086,-1.52734 2.30664,-1.8086 a 1.0001,1.0001 0 0 0 0.33594,-1.08984 c -0.29099,-0.91555 -0.44131,-1.87026 -0.44531,-2.83026 0.004,-0.96022 0.15436,-1.9148 0.44531,-2.83008 a 1.0001,1.0001 0 0 0 -0.33594,-1.08984 l -2.30664,-1.8086 0.88086,-1.52734 2.73047,1.0957 a 1.0001,1.0001 0 0 0 1.10742,-0.24804 c 1.31062,-1.41759 3.02242,-2.40334 4.9082,-2.82422 a 1.0001,1.0001 0 0 0 0.77149,-0.83399 l 0.41797,-2.91796 H 227.75 a 1,1 0 0 0 1,-1 1,1 0 0 0 -1,-1 z m 4.25391,3.77539 a 1,1 0 0 0 -1.19336,0.75781 1,1 0 0 0 0.75781,1.19336 c 1.89396,0.42234 3.61293,1.41305 4.92578,2.83984 a 1.0001,1.0001 0 0 0 1.10938,0.25195 l 2.71484,-1.08984 0.88086,1.52734 -2.29883,1.80274 a 1.0001,1.0001 0 0 0 -0.33594,1.08594 c 0.28915,0.91825 0.43665,1.87533 0.4375,2.83789 -0.004,0.96088 -0.15416,1.91614 -0.44531,2.83203 a 1.0001,1.0001 0 0 0 0.33594,1.08984 l 2.30664,1.8086 -0.88086,1.52734 -2.73047,-1.0957 a 1.0001,1.0001 0 0 0 -1.10742,0.24804 c -1.31062,1.41759 -3.02242,2.40334 -4.9082,2.82422 a 1.0001,1.0001 0 0 0 -0.77149,0.83399 l -0.41797,2.91796 h -1.76562 l -0.41797,-2.91796 a 1,1 0 0 0 -1.13086,-0.84766 1,1 0 0 0 -0.84766,1.13086 l 0.53907,3.77539 a 1.0001,1.0001 0 0 0 0.99023,0.85937 h 3.5 a 1.0001,1.0001 0 0 0 0.99023,-0.85937 l 0.45899,-3.20898 c 1.75702,-0.51394 3.34503,-1.42917 4.67187,-2.68946 l 3.00586,1.20703 a 1.0001,1.0001 0 0 0 1.23828,-0.42773 l 1.75,-3.02734 a 1.0001,1.0001 0 0 0 -0.24804,-1.28711 l -2.53907,-1.99219 c 0.21927,-0.88621 0.42023,-1.78066 0.42383,-2.69531 a 1.0001,1.0001 0 0 0 0,-0.002 1.0001,1.0001 0 0 0 0,-0.002 c -6.3e-4,-0.91746 -0.20027,-1.81559 -0.41797,-2.70508 l 2.53321,-1.98633 a 1.0001,1.0001 0 0 0 0.24804,-1.28711 l -1.75,-3.02734 a 1.0001,1.0001 0 0 0 -1.23828,-0.42773 l -2.99023,1.19726 c -1.51052,-1.44066 -3.33551,-2.51611 -5.38281,-2.97265 z" id="path8804" style="color:#000000;fill:#000000;fill-rule:evenodd;stroke-linecap:round;stroke-linejoin:round;stroke-miterlimit:4.1;-inkscape-stroke:none"/>

<path d="M 231.25061,131.01562 A 5.2506058,5.2440169 0 0 1 226,136.25964 5.2506058,5.2440169 0 0 1 220.74939,131.01562 5.2506058,5.2440169 0 0 1 226,125.7716 a 5.2506058,5.2440169 0 0 1 5.25061,5.24402 z" id="path3710" style="fill:#ffa221;fill-opacity:1;fill-rule:evenodd;stroke:none;stroke-width:2;stroke-linecap:round;stroke-linejoin:round;stroke-miterlimit:4.1"/>

<path d="m 224.96875,125.88671 a 5.2506058,5.2440169 0 0 0 -4.21875,5.12891 5.2506058,5.2440169 0 0 0 5.25,5.24414 5.2506058,5.2440169 0 0 0 4.01953,-1.87305 18.509892,17.787067 0 0 0 -5.05078,-8.5 z" id="path20512" style="fill:#ffc343;fill-opacity:1;fill-rule:evenodd;stroke:none;stroke-width:2;stroke-linecap:round;stroke-linejoin:round;stroke-miterlimit:4.1"/>

<path d="m 226,124.77148 c -3.43959,0 -6.25,2.80683 -6.25,6.24414 0,3.43731 2.81041,6.24414 6.25,6.24414 3.43959,0 6.25,-2.80683 6.25,-6.24414 a 1,1 0 0 0 -1,-1 1,1 0 0 0 -1,1 c 0,2.35507 -1.88994,4.24414 -4.25,4.24414 -2.36006,0 -4.25,-1.88907 -4.25,-4.24414 0,-2.35507 1.88994,-4.24414 4.25,-4.24414 1.19215,0 2.25728,0.48436 3.0293,1.26758 a 1,1 0 0 0 1.41406,0.01 1,1 0 0 0 0.01,-1.41406 c -1.13276,-1.1492 -2.71567,-1.86328 -4.45312,-1.86328 z" id="path8802" style="color:#000000;fill:#000000;fill-rule:evenodd;stroke-linecap:round;stroke-linejoin:round;stroke-miterlimit:4.1"/>

</g>

</svg>