<?xml version="1.0" ?>

<!-- Uploaded to: SVG Repo, www.svgrepo.com, Generator: SVG Repo Mixer Tools -->
<svg width="32px" height="32px" viewBox="0 0 64 64" id="svg5" version="1.1" xml:space="preserve" xmlns="http://www.w3.org/2000/svg" xmlns:svg="http://www.w3.org/2000/svg">

<defs id="defs2"/>

<g id="layer1" transform="translate(-96,-192)">

<path d="m 106,201 h 49 v 6 h -49 z" id="path10267" style="fill:#3e4f59;fill-opacity:1;fill-rule:evenodd;stroke-width:2;stroke-linecap:round;stroke-linejoin:round;stroke-miterlimit:4.1"/>

<path d="m 106,207 h 49 v 40 h -49 z" id="path10269" style="fill:#e8edee;fill-opacity:1;fill-rule:evenodd;stroke-width:2.00001;stroke-linecap:round;stroke-linejoin:round;stroke-miterlimit:4.1"/>

<path d="m 106,207 v 40 h 29.76953 a 28.484051,41.392605 35.599482 0 0 18.625,-40 z" id="path10271" style="fill:#e8edee;fill-opacity:1;fill-rule:evenodd;stroke:none;stroke-width:2.00002;stroke-linecap:round;stroke-linejoin:round;stroke-miterlimit:4.1"/>

<path d="m 108,200 c -1.64501,0 -3,1.355 -3,3 v 40 c 0,0.55229 0.44772,1 1,1 0.55228,0 1,-0.44771 1,-1 v -40 c 0,-0.56413 0.43587,-1 1,-1 h 45 c 0.56413,0 1,0.43587 1,1 v 3 h -42 c -0.55228,0 -1,0.44772 -1,1 0,0.55229 0.44772,1 1,1 h 42 v 37 c 0,0.56413 -0.43587,1 -1,1 h -49 c -0.55228,0 -1,0.44772 -1,1 0,0.55229 0.44772,1 1,1 h 49 c 1.64501,0 3,-1.35499 3,-3 0,-14 0,-28 0,-42 0,-1.645 -1.35499,-3 -3,-3 z" id="path10273" style="color:#000000;fill:#000000;fill-rule:evenodd;stroke-linecap:round;stroke-linejoin:round;stroke-miterlimit:4.1"/>

<path d="m 151,203 c -0.55228,0 -1,0.44772 -1,1 0,0.55229 0.44772,1 1,1 0.55228,0 1,-0.44771 1,-1 0,-0.55228 -0.44772,-1 -1,-1 z" id="path10275" style="color:#000000;fill:#ed7161;fill-opacity:1;fill-rule:evenodd;stroke-linecap:round;stroke-linejoin:round;stroke-miterlimit:4.1;-inkscape-stroke:none"/>

<path d="m 147,203 c -0.55228,0 -1,0.44772 -1,1 0,0.55229 0.44772,1 1,1 0.55228,0 1,-0.44771 1,-1 0,-0.55228 -0.44772,-1 -1,-1 z" id="path10277" style="color:#000000;fill:#ecba16;fill-opacity:1;fill-rule:evenodd;stroke-linecap:round;stroke-linejoin:round;stroke-miterlimit:4.1;-inkscape-stroke:none"/>

<path d="m 143,203 c -0.55228,0 -1,0.44772 -1,1 0,0.55229 0.44772,1 1,1 0.55228,0 1,-0.44771 1,-1 0,-0.55228 -0.44772,-1 -1,-1 z" id="path10279" style="color:#000000;fill:#42b05c;fill-opacity:1;fill-rule:evenodd;stroke-linecap:round;stroke-linejoin:round;stroke-miterlimit:4.1;-inkscape-stroke:none"/>

<path d="m 101,246 a 1,1 0 0 0 -1,1 1,1 0 0 0 1,1 1,1 0 0 0 1,-1 1,1 0 0 0 -1,-1 z" id="path10281" style="color:#000000;fill:#000000;fill-rule:evenodd;stroke-linecap:round;stroke-linejoin:round;stroke-miterlimit:4.1;-inkscape-stroke:none"/>

<path d="m 109,206 c -0.55228,0 -1,0.44772 -1,1 0,0.55229 0.44772,1 1,1 0.55228,0 1,-0.44771 1,-1 0,-0.55228 -0.44772,-1 -1,-1 z" id="path10283" style="color:#000000;fill:#000000;fill-rule:evenodd;stroke-linecap:round;stroke-linejoin:round;stroke-miterlimit:4.1;-inkscape-stroke:none"/>

<path d="m 122.99163,219.00433 h 15.0168 a 1.0858161,1.0858161 0 0 1 1.08136,0.98751 l 1.91026,21.01235 h -21.00004 l 1.91026,-21.01235 a 1.0858161,1.0858161 0 0 1 1.08136,-0.98751 z" id="path13192" style="fill:#ffa221;fill-opacity:1;fill-rule:evenodd;stroke:none;stroke-width:2;stroke-linecap:round;stroke-linejoin:round;stroke-miterlimit:4.1"/>

<path d="m 122.99219,219.00391 a 1.0858161,1.0858161 0 0 0 -1.08203,0.98828 L 120,241.00391 h 14.17578 a 13.978817,15.496084 0 0 0 3.27734,-9.94336 13.978817,15.496084 0 0 0 -5.19921,-12.05664 z" id="path4954" style="fill:#ffc343;fill-opacity:1;fill-rule:evenodd;stroke-width:2;stroke-linecap:round;stroke-linejoin:round;stroke-miterlimit:4.1"/>

<circle cx="133" cy="228" id="path13969" r="3" style="fill:#0075d3;fill-opacity:1;fill-rule:evenodd;stroke:none;stroke-width:2;stroke-linecap:round;stroke-linejoin:round;stroke-miterlimit:4.1;stroke-opacity:1"/>

<circle cx="128" cy="235" id="circle13971" r="2" style="fill:#fe93d3;fill-opacity:1;fill-rule:evenodd;stroke:none;stroke-width:2;stroke-linecap:round;stroke-linejoin:round;stroke-miterlimit:4.1;stroke-opacity:1"/>

<path d="m 128,232 a 0.99999499,0.99999499 0 0 0 -1,1 0.99999499,0.99999499 0 0 0 1,1 c 0.56413,0 1,0.43587 1,1 0,0.56413 -0.43587,1 -1,1 -0.56415,0 -1,-0.43585 -1,-1 a 0.99999499,0.99999499 0 0 0 -1,-1 0.99999499,0.99999499 0 0 0 -1,1 c 0,1.64501 1.35499,3 3,3 1.64501,0 3,-1.35499 3,-3 0,-1.64501 -1.35499,-3 -3,-3 z" id="circle13198" style="color:#000000;fill:#000000;fill-rule:evenodd;stroke-linecap:round;stroke-linejoin:round;stroke-miterlimit:4.1;-inkscape-stroke:none"/>

<path d="m 133.87109,225.12891 a 3.8833306,3.8833306 0 0 0 -1.48632,3.04297 3.8833306,3.8833306 0 0 0 1.17382,2.76757 A 3,3 0 0 0 136,228 a 3,3 0 0 0 -2.12695,-2.87109 3.8833306,3.8833306 0 0 0 -0.002,0 z" id="circle4965" style="fill:#0588e2;fill-opacity:1;fill-rule:evenodd;stroke:none;stroke-width:2.00001;stroke-linecap:round;stroke-linejoin:round;stroke-miterlimit:4.1;stroke-opacity:1"/>

<path d="m 133,224 c -2.19729,0 -4,1.80271 -4,4 0,2.19729 1.80271,4 4,4 a 0.99999499,0.99999499 0 0 0 1,-1 0.99999499,0.99999499 0 0 0 -1,-1 c -1.11641,0 -2,-0.88359 -2,-2 0,-1.11641 0.88359,-2 2,-2 1.11641,0 2,0.88359 2,2 a 0.99999499,0.99999499 0 0 0 1,1 0.99999499,0.99999499 0 0 0 1,-1 c 0,-2.19729 -1.80271,-4 -4,-4 z" id="circle13196" style="color:#000000;fill:#000000;fill-rule:evenodd;stroke-linecap:round;stroke-linejoin:round;stroke-miterlimit:4.1"/>

<path d="m 130.5,211.99609 c -3.02969,0 -5.5,2.47031 -5.5,5.5 V 223 a 1,1 0 0 0 1,1 1,1 0 0 0 1,-1 v -5.50391 c 0,-1.95628 1.54371,-3.5 3.5,-3.5 a 1,1 0 0 0 1,-1 1,1 0 0 0 -1,-1 z m 2.92773,1.9336 a 1,1 0 0 0 -0.16992,1.40429 C 133.72353,215.9282 134,216.6718 134,217.49609 V 223 a 1,1 0 0 0 1,1 1,1 0 0 0 1,-1 v -5.50391 c 0,-1.27658 -0.43597,-2.46252 -1.16797,-3.39648 a 1,1 0 0 0 -1.4043,-0.16992 z" id="path13194" style="color:#000000;fill:#000000;fill-rule:evenodd;stroke-linecap:round;stroke-linejoin:round;stroke-miterlimit:4.1;-inkscape-stroke:none"/>

<path d="m 126,228 c -0.55228,0 -1,0.44771 -1,1 0,0.55228 0.44772,1 1,1 0.55229,0 1,-0.44772 1,-1 0,-0.55229 -0.44771,-1 -1,-1 z" id="path13978" style="color:#000000;fill:#000000;fill-rule:evenodd;stroke-linecap:round;stroke-linejoin:round;stroke-miterlimit:4.1;-inkscape-stroke:none"/>

<path d="m 122.99219,218.00391 c -1.06995,0 -1.98133,0.83083 -2.07813,1.89648 l -0.13476,1.49414 a 1,1 0 0 0 0.90429,1.08594 1,1 0 0 0 1.08594,-0.9043 l 0.13672,-1.49414 c 0.005,-0.0529 0.0327,-0.0781 0.0859,-0.0781 h 15.01562 c 0.0532,0 0.0811,0.0251 0.0859,0.0781 l 1.81055,19.92188 h -0.85938 a 1,1 0 0 0 -1,1 1,1 0 0 0 1,1 H 141 a 1.0001,1.0001 0 0 0 0.99609,-1.08985 l -1.91015,-21.01367 c -0.0969,-1.06556 -1.00818,-1.89648 -2.07813,-1.89648 z m -1.54102,7.04687 a 1,1 0 0 0 -1.08789,0.90625 l -1.35937,14.95703 A 1.0001,1.0001 0 0 0 120,242.00391 L 135,242 a 1,1 0 0 0 1,-1 1,1 0 0 0 -1,-1 l -13.9043,0.004 1.25977,-13.86719 a 1,1 0 0 0 -0.9043,-1.08594 z" id="path11976" style="color:#000000;fill:#000000;fill-rule:evenodd;stroke-linecap:round;stroke-linejoin:round;stroke-miterlimit:4.1"/>

</g>

</svg>