<!DOCTYPE svg PUBLIC "-//W3C//DTD SVG 1.1//EN" "http://www.w3.org/Graphics/SVG/1.1/DTD/svg11.dtd">

<!-- Uploaded to: SVG Repo, www.svgrepo.com, Transformed by: SVG Repo Mixer Tools -->
<svg height="46px" width="46px" version="1.1" id="Layer_1" xmlns="http://www.w3.org/2000/svg" xmlns:xlink="http://www.w3.org/1999/xlink" viewBox="0 0 512.001 512.001" xml:space="preserve" fill="#000000">

<g id="SVGRepo_bgCarrier" stroke-width="0"/>

<g id="SVGRepo_tracerCarrier" stroke-linecap="round" stroke-linejoin="round"/>

<g id="SVGRepo_iconCarrier"> <path style="fill:#E6E6E6;" d="M398.815,473.399c48.503-26.192,48.503-71.029,48.503-71.029s-3.773-22.419-26.084-22.419 c-22.419,0-22.419,22.419-22.419,22.419s0-22.419-22.419-22.419c-22.311,0-26.084,22.419-26.084,22.419 S350.312,447.208,398.815,473.399z M321.965,378.55c14.227-28.024,43.329-47.101,76.85-47.101c47.64,0,86.227,38.587,86.227,86.227 s-38.587,86.227-86.227,86.227c-0.216,0-0.539,0-0.755,0c-47.317-0.431-85.472-38.802-85.472-86.227 C312.587,403.556,316.037,390.299,321.965,378.55z"/> <path style="fill:#F4661E;" d="M421.234,379.951c22.311,0,26.084,22.419,26.084,22.419s0,44.838-48.503,71.029 c-48.503-26.192-48.503-71.029-48.503-71.029s3.773-22.419,26.084-22.419c22.419,0,22.419,22.419,22.419,22.419 S398.815,379.951,421.234,379.951z"/> <path style="fill:#FEDAAB;" d="M177.858,318.73c15.629,8.192,33.844,12.718,53.892,12.718s38.263-4.635,53.892-12.718v34.276 c0,0-22.203,26.945-53.892,26.945s-53.892-26.945-53.892-26.945L177.858,318.73L177.858,318.73z"/> <path style="fill:#67746f;" d="M398.06,503.902H26.962c0-15.09,0-26.945,0-26.945s0.97-58.958,102.395-91.616 c0,0,36.755-19.185,48.503-32.335c0,0,22.203,26.945,53.892,26.945s53.892-26.945,53.892-26.945 c7.329,8.3,24.466,18.755,36.323,25.545c-5.928,11.748-9.377,25.006-9.377,39.126C312.587,465.1,350.743,503.471,398.06,503.902z"/> <path style="fill:#FEDAAB;" d="M285.642,318.73c-15.629,8.084-33.844,12.718-53.892,12.718s-38.263-4.527-53.892-12.718 c-34.598-18-57.34-53.353-63.161-95.497c-16.706-2.263-33.844-18.108-33.844-31.903c0-14.874,14.443-21.557,32.335-21.557v-21.557 c0,0,43.113,0,91.616-48.503c0,0,70.059,43.113,145.508,43.113v26.945c17.892,0,32.335,6.682,32.335,21.557 c0,13.797-17.137,29.64-33.844,31.903C342.982,265.377,320.24,300.73,285.642,318.73z"/> <path style="fill:#A67C52;" d="M204.804,99.714c-48.503,48.503-91.616,48.503-91.616,48.503v-5.389 c0,0-5.605-134.729,118.562-134.729c123.951,0,118.562,134.729,118.562,134.729C274.863,142.827,204.804,99.714,204.804,99.714z"/> <g> <path style="fill:#231F20;" d="M493.138,417.675c0-52.011-42.313-94.325-94.324-94.325c-32.83,0-62.688,16.69-79.835,44.071 c-13.99-8.371-21.366-14.023-25.239-17.694v-26.213c32.68-18.787,55.046-52.405,62.205-93.531 c18.607-5.311,34.8-22.685,34.8-38.652c0-16.221-12.185-26.993-32.335-29.225v-19.129c0.158-4.579,1.563-67.652-37.994-108.823 C298.642,11.49,268.81,0,231.75,0c-37.158,0-67.044,11.513-88.826,34.221c-39.485,41.162-38.001,104.139-37.834,108.763v19.122 c-20.15,2.232-32.334,13.004-32.334,29.225c0,15.967,16.192,33.339,34.799,38.652c7.161,41.134,29.532,74.756,62.205,93.533v26.19 c-10.217,9.642-33.937,23.08-43.552,28.145c-105.063,34.093-107.3,96.338-107.343,98.975l-0.001,35.177h379.196h0.755h5.389v-0.158 C453.717,509.039,493.138,467.877,493.138,417.675z M185.956,331.273c14.141,5.487,29.486,8.273,45.794,8.273 c16.181,0,31.524-2.8,45.794-8.317v18.656c-5.532,5.782-23.048,21.968-45.794,21.968c-22.6,0-40.237-16.217-45.794-21.984 L185.956,331.273L185.956,331.273z M154.611,45.432c18.611-19.4,44.563-29.237,77.139-29.237c32.442,0,58.322,9.793,76.918,29.107 c27.707,28.774,32.611,71.659,33.422,89.244c-69.063-2.924-132.388-41.328-133.041-41.729l-5.447-3.353l-4.523,4.523 c-33.196,33.196-63.768,42.512-77.822,45.12C121.399,125.942,124.071,77.269,154.611,45.432z M122.718,222.127l-0.841-6.092 l-6.094-0.826c-11.717-1.587-26.833-13.452-26.833-23.879c0-12.488,18.552-13.459,24.236-13.459h8.098v-22.304 c14.835-2.216,48.105-10.995,84.764-45.763c17.498,9.814,73.821,38.598,136.169,40.961l-0.004,27.105h8.098 c5.686,0,24.237,0.971,24.237,13.459c0,10.427-15.117,22.292-26.834,23.879l-6.094,0.826l-0.841,6.092 c-5.558,40.254-27.019,72.846-58.86,89.411c-15.155,7.839-32.035,11.813-50.172,11.813c-18.335,0-35.203-3.968-50.154-11.805 C149.738,294.972,128.278,262.379,122.718,222.127z M35.059,495.804v-18.699c0.052-0.944,0.973-13.938,12.483-30.19 c20.263-28.612,57.024-45.086,84.297-53.867l0.654-0.211l0.61-0.319c3.353-1.75,29.401-15.506,44.48-28.135 c9.324,8.777,28.871,23.665,54.166,23.665c25.276,0,44.811-14.866,54.143-23.645c6.005,5.039,14.51,10.818,25.671,17.453 c-4.694,11.431-7.075,23.446-7.075,35.819c0,25.074,9.71,48.669,27.342,66.439c4.352,4.387,9.065,8.289,14.071,11.69H35.059 V495.804z M398.815,495.804h-0.681c-20.751-0.189-40.214-8.392-54.805-23.097c-14.601-14.715-22.643-34.259-22.643-55.032 c0-12.349,2.861-24.284,8.506-35.473c13.365-26.311,40.041-42.656,69.622-42.656c43.08,0,78.128,35.049,78.128,78.129 S441.895,495.804,398.815,495.804z"/> <path style="fill:#231F20;" d="M455.304,401.026c-1.698-10.09-11.003-29.173-34.07-29.173c-10.283,0-17.558,3.85-22.419,9.201 c-4.861-5.352-12.135-9.201-22.419-9.201c-23.066,0-32.371,19.083-34.07,29.173l-0.112,0.667v0.676 c0,2.028,0.6,49.992,52.753,78.155l3.847,2.077l3.847-2.077c52.154-28.162,52.753-76.126,52.753-78.155v-0.676L455.304,401.026z M398.813,464.091c-37.049-22.067-40.127-55.528-40.381-61.003c0.768-3.27,4.467-15.039,17.964-15.039 c13.059,0,14.263,11.012,14.321,14.321h16.196c0-0.037,0.114-3.922,1.948-7.588c2.297-4.593,6.229-6.733,12.374-6.733 c13.532,0,17.215,11.828,17.962,15.018C438.925,408.329,435.736,442.071,398.813,464.091z"/> </g> </g>

</svg>