<?xml version="1.0" encoding="iso-8859-1"?>
<!-- Uploaded to: SVG Repo, www.svgrepo.com, Generator: SVG Repo Mixer Tools -->
<svg version="1.1" id="Layer_1" xmlns="http://www.w3.org/2000/svg" xmlns:xlink="http://www.w3.org/1999/xlink" 
	 viewBox="0 0 512 512" xml:space="preserve">
<path style="fill:#6E6057;" d="M422.957,0H89.043C61.381,0,38.957,22.424,38.957,50.087v161.391h434.087V50.087
	C473.043,22.424,450.619,0,422.957,0z"/>
<path style="fill:#615349;" d="M422.957,0H256v211.478h217.043V50.087C473.043,22.424,450.619,0,422.957,0z"/>
<path style="fill:#806F65;" d="M400.696,478.609H111.304c-18.442,0-33.391-14.949-33.391-33.391V244.87h356.174v200.348
	C434.087,463.659,419.138,478.609,400.696,478.609z"/>
<path style="fill:#6E6057;" d="M256,478.609h144.696c18.442,0,33.391-14.949,33.391-33.391V244.87H256V478.609z"/>
<path style="fill:#9DCA40;" d="M389.565,177.691h-267.13c-9.217,0-16.696-7.473-16.696-16.696V83.082
	c0-9.223,7.479-16.696,16.696-16.696h267.13c9.217,0,16.696,7.473,16.696,16.696v77.913
	C406.261,170.218,398.782,177.691,389.565,177.691z"/>
<path style="fill:#8EB043;" d="M389.565,66.386H256v111.304h133.565c9.217,0,16.696-7.473,16.696-16.696V83.082
	C406.261,73.858,398.782,66.386,389.565,66.386z"/>
<rect x="38.957" y="211.478" style="fill:#6E6057;" width="434.087" height="33.391"/>
<path style="fill:#DBE9FD;" d="M38.957,211.478c0,113.898,0,134.933,0,250.435c0,27.662,22.424,50.087,50.087,50.087
	c137.078,0,174.827,0,333.913,0c27.662,0,50.087-22.424,50.087-50.087V211.478C377.217,211.478,135.531,211.478,38.957,211.478z
	 M306.087,244.87v100.174H205.913V244.87H306.087z M77.913,244.87h94.609v100.174H77.913V244.87z M111.304,478.609
	c-18.442,0-33.391-14.949-33.391-33.391v-66.783h94.609v100.174H111.304z M205.913,478.609V378.435h100.174v100.174H205.913z
	 M434.087,445.217c0,18.442-14.949,33.391-33.391,33.391h-61.217c0-130.089,0-101.688,0-233.739h94.609V445.217z"/>
<path style="fill:#C5DCFD;" d="M256,244.87h50.087v100.174H256v33.391h50.087v100.174H256V512c44.114,0,92.102,0,166.957,0
	c27.662,0,50.087-22.424,50.087-50.087V211.478c-47.967,0-132.478,0-217.043,0V244.87z M339.478,244.87h94.609v200.348
	c0,18.442-14.949,33.391-33.391,33.391h-61.217C339.478,348.519,339.478,376.921,339.478,244.87z"/>
</svg>