<?xml version="1.0" standalone="no"?>
<!DOCTYPE svg PUBLIC "-//W3C//DTD SVG 20010904//EN"
 "http://www.w3.org/TR/2001/REC-SVG-20010904/DTD/svg10.dtd">
<svg version="1.0" xmlns="http://www.w3.org/2000/svg"
 width="1080.000000pt" height="1080.000000pt" viewBox="0 0 1080.000000 1080.000000"
 preserveAspectRatio="xMidYMid meet">
<metadata>
Created by potrace 1.14, written by Peter Selinger 2001-2017
</metadata>
<g transform="translate(0.000000,1080.000000) scale(0.100000,-0.100000)"
fill="#000000" stroke="none">
<path d="M5269 7972 c-189 -98 -1162 -669 -1329 -780 -32 -22 -64 -54 -77 -77
l-23 -40 0 -806 c0 -912 -3 -875 75 -958 27 -28 83 -68 142 -101 54 -30 204
-117 333 -193 272 -161 797 -457 885 -499 47 -22 74 -28 126 -28 76 0 121 14
199 60 30 18 253 146 495 285 657 376 806 472 843 545 l22 45 -2 815 -3 815
-28 57 c-35 72 -69 101 -193 168 -54 29 -203 115 -330 190 -250 149 -818 468
-899 506 -74 35 -165 33 -236 -4z m242 -560 c93 -49 138 -139 117 -236 -21
-101 -153 -189 -255 -170 -165 30 -255 188 -180 316 25 44 77 87 127 107 51
20 134 13 191 -17z m89 -1572 l0 -800 -210 0 -210 0 0 800 0 800 210 0 210 0
0 -800z"/>
<path d="M3914 4106 c-48 -21 -74 -61 -74 -115 1 -73 52 -121 128 -121 84 0
132 44 132 121 0 97 -94 155 -186 115z"/>
<path d="M5381 4103 c-18 -9 -42 -31 -52 -47 -53 -87 13 -186 124 -186 44 0
53 4 88 39 32 32 39 46 39 77 0 102 -105 163 -199 117z"/>
<path d="M6764 4101 c-46 -28 -64 -59 -64 -111 0 -75 49 -120 130 -120 80 0
130 47 130 123 0 99 -111 160 -196 108z"/>
<path d="M6071 3695 c-159 -45 -275 -159 -316 -309 -24 -87 -17 -237 14 -316
44 -113 128 -194 252 -242 69 -26 236 -36 318 -18 67 14 180 66 188 85 4 11
-102 155 -113 155 -1 0 -25 -12 -54 -27 -101 -52 -233 -31 -308 51 -56 60 -76
120 -70 205 7 97 55 169 142 213 71 36 191 21 268 -33 l31 -22 18 24 c10 13
37 49 59 80 43 62 43 62 -20 101 -97 59 -295 85 -409 53z"/>
<path d="M3850 3255 l0 -435 115 0 115 0 0 435 0 435 -115 0 -115 0 0 -435z"/>
<path d="M4210 3683 c0 -19 490 -878 502 -880 8 -2 100 160 243 428 127 237
231 437 233 445 3 12 -17 14 -129 12 l-133 -3 -100 -232 c-55 -128 -103 -233
-107 -233 -3 0 -56 105 -117 233 l-112 232 -140 3 c-77 1 -140 -1 -140 -5z"/>
<path d="M5320 3255 l0 -435 120 0 120 0 0 435 0 435 -120 0 -120 0 0 -435z"/>
<path d="M6710 3255 l0 -435 115 0 115 0 0 435 0 435 -115 0 -115 0 0 -435z"/>
</g>
</svg>
